<?xml version="1.0" encoding="iso-8859-1"?>
<!-- Generator: Adobe Illustrator 18.1.1, SVG Export Plug-In . SVG Version: 6.00 Build 0)  -->
<svg version="1.1" id="Capa_1" xmlns="http://www.w3.org/2000/svg" xmlns:xlink="http://www.w3.org/1999/xlink" x="0px" y="0px"
	 viewBox="0 0 39.222 39.222" style="enable-background:new 0 0 39.222 39.222;" xml:space="preserve">
<g>
	<g>
		<path style="fill:#010002;" d="M38.981,15.039c-1.168-4.286-3.629-7.568-7.125-9.492C29.96,4.5,27.787,3.88,25.509,3.707V3.706
			c-0.003,0-0.008,0-0.011,0c-1.165-0.088-2.355-0.044-3.555,0.107c-11.888,0.669-16.146,8.55-16.181,8.715
			c-0.021,0.092-0.196,0.899-0.271,1.733c-0.033,0.351-0.053,0.731-0.021,1.102c-0.387,0.2-0.644,0.617-0.612,1.079
			c0.042,0.621,0.58,1.095,1.202,1.052c1.532-0.104,2.771,0.049,3.701,0.446c-0.033,0.168-0.068,0.34-0.103,0.513
			c-0.312,1.614-0.682,3.498-1.159,5.372c-0.244-0.009-0.494-0.021-0.772-0.028c-1.175-0.05-1.525-1.382-4.34-1.395
			c-0.021,0-0.037,0-0.056,0.003C2.27,22.453,1.416,22.54,0.87,23.167c-0.354,0.401-0.436,0.88-0.438,1.275
			c0,0.074,0.004,0.142,0.007,0.209C0.401,25.205,0.092,30.619,0,34.086c0,0.008,0,0.016,0,0.027
			c-0.002,0.491,0.318,0.931,0.792,1.08c2,0.621,3.829,0.457,5.43-0.498c2.609-1.554,2.918-3.666,4-7.327
			c0.558-0.008,1.182-0.034,1.975-0.087c0.049,0.672,0.207,1.361,0.568,2.604l0.005,0.021l0.007,0.018
			c0.833,1.762,2.075,2.897,3.692,3.371c3.266,0.959,6.027,2.857,8.832,1.098l0.006-0.004l0.008-0.006
			c0.862-0.647,2.602-1.589,4.824-0.934c0.041,0.03,0.086,0.064,0.129,0.094l0.01,0.006l0.011,0.006
			c0.825,0.457,2.657,0.703,3.262,0.783c0.712,0.09,1.188-0.006,1.509-0.743c0.113-0.271,0.194-0.559,0.373-1.393
			c0.049-0.217,0.076-0.402,0.088-0.563l0.022-0.116c0.05-0.273,0.136-0.651,0.242-1.131C36.403,27.698,40.205,19.557,38.981,15.039
			z M5.069,32.76c-0.832,0.493-1.747,0.653-2.784,0.478c0.032-0.902,0.077-1.825,0.124-2.698c0.092-0.225,0.235-0.462,0.466-0.681
			c0.628-0.597,0.765,0.083,3.831,0.498C5.935,31.989,6.255,32.051,5.069,32.76z M7.223,29.148
			c-2.674-0.413-3.407-1.461-4.697-0.616c0.091-1.458,0.17-3.745,0.171-3.768c0.002-0.018,0.002-0.034,0.003-0.051
			c0.146-0.02,0.373-0.038,0.711-0.054c2.75,0.011,3.068,2.605,4.226,2.652c0.083,0.007,0.155,0.009,0.229,0.013
			C7.671,27.954,7.457,28.558,7.223,29.148z M11.998,23.768c-0.438,0.027-0.82,0.048-1.167,0.061
			c0.323-1.328,0.592-2.65,0.838-3.898C12.141,21.175,12.06,22.673,11.998,23.768z M20.866,25.712c-1.317,0-2.384-1.066-2.384-2.382
			c0-1.318,1.066-2.384,2.384-2.384c1.316,0,2.379,1.064,2.379,2.384C23.245,24.644,22.183,25.712,20.866,25.712z"/>
	</g>
</g>
<g>
</g>
<g>
</g>
<g>
</g>
<g>
</g>
<g>
</g>
<g>
</g>
<g>
</g>
<g>
</g>
<g>
</g>
<g>
</g>
<g>
</g>
<g>
</g>
<g>
</g>
<g>
</g>
<g>
</g>
</svg>
