<?xml version="1.0" encoding="iso-8859-1"?>
<!-- Generator: Adobe Illustrator 18.1.1, SVG Export Plug-In . SVG Version: 6.00 Build 0)  -->
<svg version="1.1" id="Capa_1" xmlns="http://www.w3.org/2000/svg" xmlns:xlink="http://www.w3.org/1999/xlink" x="0px" y="0px"
	 viewBox="0 0 48.727 48.727" style="enable-background:new 0 0 48.727 48.727;" xml:space="preserve">
<g>
	<g>
		<g>
			<path style="fill:#010002;" d="M42.953,14.956c-2.438-2.602-6.287-4.233-10.749-4.615c0.695-0.209,1.37-0.467,2.02-0.776
				c1.391-0.663,2.67-1.548,3.832-2.683c1.15-1.159,2.209-2.515,2.957-4.514c-2.025-0.665-3.744-0.69-5.371-0.514
				c-1.611,0.197-3.103,0.644-4.492,1.314c-1.383,0.672-2.664,1.555-3.827,2.691c-1.125,1.138-2.158,2.467-2.906,4.391
				C23.355,8.371,21.645,4.77,20.89,0l-2.332,0.368c0.699,4.432,2.154,7.913,3.292,10.11c-1.096-0.144-2.197-0.224-3.3-0.224
				c-5.317,0-9.972,1.713-12.774,4.701c-2.296,2.446-3.338,5.605-3.098,9.342c0,9.658,6.314,23.508,18.249,24.393
				c0.112,0,0.407-0.03,0.811-0.074c0.774-0.082,2.066-0.225,3.125-0.225c1.109,0,1.39,0.157,1.417,0.172l0.192,0.164h0.26
				c12.439,0,19.318-14.445,19.318-24.387C46.289,20.562,45.247,17.404,42.953,14.956z M25.581,10.681
				c-0.275,0.051-0.546,0.108-0.82,0.168c-0.08-0.134-0.167-0.284-0.263-0.451C24.869,10.515,25.227,10.604,25.581,10.681z
				 M44.635,24.298c0,9.552-6.729,22.853-17.703,23.017c-0.429-0.229-1.09-0.334-2.07-0.334c-1.133,0-2.476,0.146-3.277,0.229
				c-0.324,0.036-0.562,0.063-0.63,0.063C10.095,46.467,4.09,33.175,4.088,24.252c-0.215-3.378,0.699-6.179,2.717-8.331
				c2.536-2.702,6.815-4.253,11.744-4.253c1.396,0,2.79,0.124,4.167,0.368c0.389,0.643,0.654,1.013,0.691,1.065l1-0.728l0.124-0.03
				c1.849-0.448,3.749-0.676,5.647-0.676c4.926,0,9.207,1.551,11.742,4.255C43.94,18.073,44.854,20.877,44.635,24.298z"/>
			<path style="fill:#010002;" d="M28.416,28.146c-0.4,0.6-0.74,1.291-1.011,2.086c-0.263,0.808-0.472,1.693-0.499,2.85
				c0.777-0.042,1.373-0.354,1.916-0.739c0.533-0.403,0.996-0.909,1.4-1.507c0.403-0.6,0.744-1.287,1.016-2.082
				c0.262-0.807,0.469-1.695,0.496-2.854c-0.778,0.039-1.377,0.348-1.918,0.74C29.283,27.039,28.819,27.547,28.416,28.146z"/>
			<path style="fill:#010002;" d="M22.658,27.592c-0.393-0.667-0.875-1.338-1.663-2.027c-0.471,0.621-0.638,1.259-0.715,1.898
				c-0.064,0.645-0.009,1.293,0.15,1.946c0.16,0.653,0.421,1.315,0.798,1.983c0.393,0.664,0.875,1.336,1.656,2.026
				c0.468-0.622,0.635-1.259,0.712-1.899c0.062-0.643,0.009-1.293-0.146-1.946C23.294,28.917,23.034,28.26,22.658,27.592z"/>
		</g>
	</g>
</g>
<g>
</g>
<g>
</g>
<g>
</g>
<g>
</g>
<g>
</g>
<g>
</g>
<g>
</g>
<g>
</g>
<g>
</g>
<g>
</g>
<g>
</g>
<g>
</g>
<g>
</g>
<g>
</g>
<g>
</g>
</svg>
