<?xml version="1.0" encoding="iso-8859-1"?>
<!-- Generator: Adobe Illustrator 18.1.1, SVG Export Plug-In . SVG Version: 6.00 Build 0)  -->
<svg version="1.1" id="Capa_1" xmlns="http://www.w3.org/2000/svg" xmlns:xlink="http://www.w3.org/1999/xlink" x="0px" y="0px"
	 viewBox="0 0 36.715 36.715" style="enable-background:new 0 0 36.715 36.715;" xml:space="preserve">
<g>
	<g>
		<g>
			<path style="fill:#010002;" d="M35.489,1.33c-1.128-1.129-2.333-1.756-3.463-0.626l-18.99,21.461L1.935,33.268L1.56,32.893
				c-0.356-0.357-0.937-0.355-1.293,0c-0.356,0.357-0.356,0.937,0,1.292l2.154,2.155c0.358,0.356,0.937,0.356,1.293,0
				c0.358-0.356,0.358-0.937,0-1.293l-0.162-0.161l11.105-11.104L36.119,4.796C37.25,3.666,36.62,2.461,35.489,1.33z"/>
			<path style="fill:#010002;" d="M34.618,21.914l-0.558-0.199l0.292-0.82c-0.235-0.091-0.474-0.2-0.702-0.327l-0.395,0.691
				l-0.513-0.292l0.401-0.712c-0.258-0.18-0.506-0.384-0.744-0.611l-0.563,0.562l-0.415-0.422l0.572-0.567
				c-0.207-0.239-0.391-0.489-0.546-0.745l-0.76,0.346l-0.244-0.538l0.718-0.328c-0.105-0.214-0.192-0.431-0.265-0.648l-0.974,0.227
				l-0.136-0.578l0.955-0.223c-0.021-0.114-0.039-0.229-0.056-0.341c-0.983,0.091-1.942,0.514-2.697,1.269
				c-0.754,0.754-1.18,1.715-1.271,2.7c0.16,0.019,0.322,0.049,0.484,0.085l0.338-0.95l0.557,0.199l-0.328,0.921
				c0.235,0.083,0.463,0.186,0.694,0.308l0.437-0.773l0.516,0.291l-0.444,0.787c0.256,0.172,0.504,0.366,0.74,0.583l0.61-0.606
				l0.414,0.42l-0.608,0.607c0.206,0.231,0.389,0.471,0.551,0.719l0.791-0.359l0.246,0.539l-0.732,0.335
				c0.108,0.212,0.197,0.426,0.277,0.642l0.974-0.227l0.135,0.576l-0.94,0.22c0.037,0.16,0.067,0.317,0.084,0.476
				c0.986-0.092,1.949-0.514,2.7-1.27c0.753-0.753,1.179-1.715,1.271-2.699c-0.186-0.022-0.376-0.062-0.565-0.107L34.618,21.914z"/>
			<path style="fill:#010002;" d="M31.234,16.37c0.011,0.078,0.027,0.157,0.042,0.236l0.547-0.128l0.136,0.577l-0.529,0.123
				c0.067,0.183,0.14,0.365,0.229,0.546l0.685-0.313l0.246,0.54l-0.64,0.291c0.131,0.2,0.274,0.396,0.433,0.586l0.521-0.513
				l0.416,0.42l-0.523,0.523c0.196,0.189,0.405,0.364,0.623,0.518l0.349-0.625l0.518,0.291l-0.365,0.65
				c0.205,0.113,0.407,0.209,0.613,0.291l0.229-0.634l0.557,0.198l-0.218,0.613c0.136,0.031,0.271,0.058,0.4,0.074
				c-0.032-1.081-0.459-2.153-1.287-2.979C33.392,16.83,32.317,16.401,31.234,16.37z"/>
			<path style="fill:#010002;" d="M30.34,24.926l-0.138-0.578l0.521-0.121c-0.065-0.181-0.144-0.36-0.238-0.539l-0.667,0.305
				l-0.243-0.538l0.601-0.275c-0.13-0.193-0.276-0.382-0.439-0.564l-0.477,0.477l-0.417-0.42l0.477-0.477
				c-0.195-0.183-0.403-0.347-0.615-0.491l-0.312,0.551l-0.517-0.291l0.322-0.57c-0.2-0.105-0.404-0.195-0.608-0.269l-0.188,0.531
				l-0.56-0.198l0.182-0.501c-0.104-0.022-0.216-0.042-0.317-0.057c0.036,1.082,0.464,2.153,1.287,2.979
				c0.822,0.827,1.896,1.254,2.979,1.286c-0.016-0.122-0.038-0.246-0.067-0.37L30.34,24.926z"/>
		</g>
	</g>
</g>
<g>
</g>
<g>
</g>
<g>
</g>
<g>
</g>
<g>
</g>
<g>
</g>
<g>
</g>
<g>
</g>
<g>
</g>
<g>
</g>
<g>
</g>
<g>
</g>
<g>
</g>
<g>
</g>
<g>
</g>
</svg>
