<?xml version="1.0" encoding="iso-8859-1"?>
<!-- Generator: Adobe Illustrator 18.1.1, SVG Export Plug-In . SVG Version: 6.00 Build 0)  -->
<svg version="1.1" id="Capa_1" xmlns="http://www.w3.org/2000/svg" xmlns:xlink="http://www.w3.org/1999/xlink" x="0px" y="0px"
	 viewBox="0 0 41.386 41.386" style="enable-background:new 0 0 41.386 41.386;" xml:space="preserve">
<g>
	<g>
		<g>
			<path style="fill:#010002;" d="M25.802,7.03c1.941,0,3.515-1.577,3.515-3.516c0-1.94-1.572-3.514-3.515-3.514
				c-1.936,0-3.515,1.574-3.515,3.514S23.866,7.03,25.802,7.03z"/>
			<path style="fill:#010002;" d="M33.935,13.972l0.022,0.011l-0.01-2.02c-0.323-3.856-4.793-3.801-4.793-3.801H22.11
				c-5.049,0.096-4.869,3.801-4.869,3.801v0.329l-7.114-8.184c-0.619-0.619-1.623-0.619-2.236,0c-0.617,0.617-0.617,1.618,0,2.236
				l8.938,7.772c0.147,0.146,0.284,0.291,0.411,0.417v1.285h0.005c0,0.022-0.003,0.044-0.003,0.063c0,0.82,0.668,1.484,1.481,1.484
				c0.398,0,0.749-0.16,1.018-0.412l0.003,0.004c-0.777,0.507-1.173,1.349-0.901,2.078c0.297,0.792,1.285,1.14,2.292,0.903v1.902
				l-1.599,9.171l1.591,8.369c0,1.108,0.896,2.006,2.002,2.006c1.108,0,2.004-0.897,2.004-2.006l-1.594-8.633l1.593-9.21h0.896
				L29.216,39.4l0.016,0.015c0.016,1.089,0.899,1.971,1.99,1.971c1.102,0,1.995-0.893,1.995-1.993l-2.73-22.896l1.944-0.729
				C33.324,15.435,33.899,14.702,33.935,13.972z M21.136,12.604v3.703l-0.931-0.93v-2.773H21.136z M30.018,12.568h0.968l0.115,0.058
				l-1.028,0.387L30.018,12.568z"/>
		</g>
	</g>
</g>
<g>
</g>
<g>
</g>
<g>
</g>
<g>
</g>
<g>
</g>
<g>
</g>
<g>
</g>
<g>
</g>
<g>
</g>
<g>
</g>
<g>
</g>
<g>
</g>
<g>
</g>
<g>
</g>
<g>
</g>
</svg>
