<?xml version="1.0" encoding="iso-8859-1"?>
<!-- Generator: Adobe Illustrator 18.1.1, SVG Export Plug-In . SVG Version: 6.00 Build 0)  -->
<svg version="1.1" id="Capa_1" xmlns="http://www.w3.org/2000/svg" xmlns:xlink="http://www.w3.org/1999/xlink" x="0px" y="0px"
	 viewBox="0 0 42.337 42.337" style="enable-background:new 0 0 42.337 42.337;" xml:space="preserve">
<g>
	<g>
		<g>
			<path style="fill:#010002;" d="M21.072,22.076L7.317,37.186c3.694,3.193,8.198,4.895,12.755,5.127
				c0.279-0.99,0.786-3.093,0.771-5.359c-0.011-3.064-0.017-7.635,3.537-11.866L21.072,22.076z"/>
			<path style="fill:#010002;" d="M16.814,18.205c-3.879,3.931-8.431,4.354-11.478,4.635c-2.168,0.195-4.139,0.847-5.145,1.226
				c0.625,4.519,2.701,8.858,6.184,12.256l13.748-15.106L16.814,18.205z"/>
			<path style="fill:#010002;" d="M20.982,20.272L34.864,5.014c-3.735-3.172-8.291-4.828-12.875-5.002
				c-0.28,0.979-0.793,3.095-0.782,5.382c0.01,3.062,0.014,7.632-3.531,11.867L20.982,20.272z"/>
			<path style="fill:#010002;" d="M25.235,24.142c3.884-3.932,8.432-4.355,11.483-4.634c2.386-0.216,4.532-0.983,5.411-1.332
				c-0.645-4.547-2.768-8.908-6.313-12.305l-13.891,15.26L25.235,24.142z"/>
			<path style="fill:#010002;" d="M22.124,36.948c0.01,2.214-0.425,4.236-0.729,5.387c5.451-0.063,10.864-2.207,14.931-6.378
				L25.322,25.946C22.106,29.81,22.117,33.916,22.124,36.948z"/>
			<path style="fill:#010002;" d="M15.87,17.344L5.015,7.47c-3.725,4.391-5.356,9.905-4.956,15.281
				c1.137-0.414,3.041-0.994,5.16-1.187C8.239,21.291,12.327,20.91,15.87,17.344z"/>
			<path style="fill:#010002;" d="M42.271,19.494c-1.087,0.412-3.137,1.079-5.439,1.29c-3.022,0.275-7.104,0.656-10.651,4.219
				l11.008,10.014C41.031,30.577,42.703,24.959,42.271,19.494z"/>
			<path style="fill:#010002;" d="M19.926,5.399c-0.006-2.221,0.428-4.245,0.738-5.396C15.24,0.136,9.883,2.328,5.87,6.522
				l10.858,9.88C19.947,12.54,19.937,8.433,19.926,5.399z"/>
		</g>
	</g>
</g>
<g>
</g>
<g>
</g>
<g>
</g>
<g>
</g>
<g>
</g>
<g>
</g>
<g>
</g>
<g>
</g>
<g>
</g>
<g>
</g>
<g>
</g>
<g>
</g>
<g>
</g>
<g>
</g>
<g>
</g>
</svg>
