<?xml version="1.0" encoding="iso-8859-1"?>
<!-- Generator: Adobe Illustrator 18.1.1, SVG Export Plug-In . SVG Version: 6.00 Build 0)  -->
<svg version="1.1" id="Capa_1" xmlns="http://www.w3.org/2000/svg" xmlns:xlink="http://www.w3.org/1999/xlink" x="0px" y="0px"
	 viewBox="0 0 47.303 47.303" style="enable-background:new 0 0 47.303 47.303;" xml:space="preserve">
<g>
	<g>
		<g>
			<path style="fill:#010002;" d="M37.909,6.259h-5.082V5.485H9.263v0.78C4.143,6.338,0,10.517,0,15.653v16.771
				c0,5.18,4.215,9.394,9.394,9.394H37.91c5.179,0,9.393-4.214,9.393-9.394V15.653C47.302,10.473,43.088,6.259,37.909,6.259z
				 M24.917,11.246c-0.537,0-1.079,0.15-1.476,0.42l-0.232-0.685c0.466-0.29,1.15-0.486,1.857-0.486c1.72,0,2.14,1.171,2.14,2.286
				v2.104c0,0.488,0.022,0.963,0.08,1.344h-0.917l-0.082-0.705h-0.033c-0.316,0.44-0.919,0.835-1.722,0.835
				c-1.139,0-1.718-0.801-1.718-1.613c0-1.359,1.209-2.101,3.381-2.094v-0.115C26.195,12.085,26.068,11.236,24.917,11.246z
				 M20.637,15.531c0.58,0,0.963-0.136,1.251-0.266l0.177,0.769c-0.271,0.128-0.861,0.324-1.614,0.324
				c-1.699,0-2.804-1.149-2.804-2.868c0-1.733,1.188-2.995,3.022-2.995c0.604,0,1.141,0.148,1.419,0.299l-0.233,0.782
				c-0.241-0.13-0.627-0.271-1.186-0.271c-1.289,0-1.986,0.963-1.986,2.128C18.683,14.734,19.52,15.531,20.637,15.531z
				 M17.33,16.228h-1.199l-2.562-3.844l-0.758,0.861v2.982h-1.009V8.943h1.009v3.235h0.034c0.21-0.304,0.418-0.581,0.618-0.837
				l1.951-2.398h1.233l-2.372,2.781L17.33,16.228z M28.852,8.943h1.022v7.285h-1.022V8.943z M44.619,32.424
				c0,3.701-3.012,6.711-6.71,6.711H27.454v-0.781h-0.3c4.455-0.732,7.783-3.564,7.783-6.956H14.835
				c0,3.392,3.327,6.224,7.783,6.956h-0.333v0.781H9.393c-3.699,0-6.71-3.01-6.71-6.711V15.653c0-3.655,2.94-6.633,6.579-6.705
				v8.905h23.564v-8.91h5.082c3.698,0,6.71,3.009,6.71,6.71L44.619,32.424L44.619,32.424z"/>
			<path style="fill:#010002;" d="M23.838,14.629c0,0.672,0.439,0.975,0.954,0.975c0.739,0,1.216-0.464,1.378-0.94
				c0.037-0.118,0.046-0.234,0.046-0.325v-0.978C25.104,13.339,23.838,13.537,23.838,14.629z"/>
			<path style="fill:#010002;" d="M29.818,27.697l4.472-8.607l-0.588-0.308l-5.024,9.668H26.51c0.18-0.416,0.471-0.947,0.94-1.648
				l0.047-0.066c0.265-0.396,0.302-1.066-0.043-1.336c-0.394-0.303-0.976-0.016-1.741,0.84c-0.87,0.975-0.62,1.391-0.21,1.832
				c0.106,0.116,0.21,0.232,0.284,0.38h-0.604c-0.082-0.182-0.18-0.36-0.307-0.517c0.083-0.213,0.137-0.424,0.154-0.629
				c0.061-0.738-0.374-1.266-1.171-1.4c-0.757-0.126-1.303,0.168-1.73,0.576c-0.261-0.216-0.539-0.414-0.84-0.574
				c-1.324-0.719-1.921-0.873-2.203-0.576c-0.349,0.364,0.029,1.036,0.92,2.521c0.135,0.223,0.329,0.488,0.589,0.599h-5.761v2.658
				h20.067v-2.658h-4.875l7.568-8.282l-0.49-0.447L29.818,27.697z M26.089,26.572c0.591-0.66,0.907-0.782,1.017-0.782
				c0.021,0,0.033,0.002,0.041,0.008c0.086,0.066,0.082,0.43-0.065,0.655l-0.046,0.067c-0.307,0.457-0.646,0.992-0.898,1.527
				c-0.086-0.127-0.181-0.229-0.267-0.318C25.585,27.423,25.453,27.281,26.089,26.572z M22.092,28.45
				c0.246-0.132,0.527-0.264,0.845-0.386c0.101,0.128,0.185,0.258,0.276,0.386H22.092z M23.441,27.9
				c0.322-0.065,0.583-0.024,0.807,0.128c0.008,0.004,0.012,0.006,0.02,0.01c-0.078,0.143-0.184,0.276-0.292,0.412h-0.143
				C23.709,28.268,23.581,28.087,23.441,27.9z M24.626,28.45h-0.021c0.004-0.006,0.01-0.012,0.012-0.018
				C24.62,28.438,24.624,28.444,24.626,28.45z M23.521,26.38c0.082,0,0.168,0.006,0.258,0.021c0.54,0.094,0.793,0.381,0.75,0.862
				c-0.008,0.099-0.027,0.203-0.059,0.309c-0.386-0.234-0.846-0.266-1.367-0.1c-0.186-0.226-0.386-0.444-0.6-0.654
				C22.784,26.558,23.111,26.38,23.521,26.38z M19.466,25.652c0.004,0.024,0.282-0.012,1.587,0.692
				c0.265,0.146,0.511,0.315,0.741,0.507c-0.137,0.174-0.262,0.348-0.379,0.512c-0.203,0.286-0.454,0.64-0.594,0.64
				c-0.015,0-0.141-0.009-0.379-0.402C20.004,26.867,19.41,25.876,19.466,25.652z M21.826,27.652
				c0.108-0.153,0.222-0.312,0.344-0.465c0.15,0.147,0.297,0.307,0.437,0.471c-0.494,0.204-1.028,0.482-1.447,0.792h-0.11
				C21.333,28.335,21.569,28.016,21.826,27.652z"/>
		</g>
	</g>
</g>
<g>
</g>
<g>
</g>
<g>
</g>
<g>
</g>
<g>
</g>
<g>
</g>
<g>
</g>
<g>
</g>
<g>
</g>
<g>
</g>
<g>
</g>
<g>
</g>
<g>
</g>
<g>
</g>
<g>
</g>
</svg>
