<?xml version="1.0" encoding="iso-8859-1"?>
<!-- Generator: Adobe Illustrator 18.1.1, SVG Export Plug-In . SVG Version: 6.00 Build 0)  -->
<svg version="1.1" id="Capa_1" xmlns="http://www.w3.org/2000/svg" xmlns:xlink="http://www.w3.org/1999/xlink" x="0px" y="0px"
	 viewBox="0 0 40.967 40.967" style="enable-background:new 0 0 40.967 40.967;" xml:space="preserve">
<g>
	<g>
		<g>
			<path style="fill:#010002;" d="M15.8,16.337c-0.69-2.237-1.674-3.968-2.818-4.889c0.158-0.492,0.05-1.331,0.05-1.847
				c0-0.759-0.614-1.376-1.375-1.376h-1.158c-0.759,0-1.377,0.617-1.377,1.376c0,0.516-0.108,1.354,0.05,1.847
				c-2.26,1.814-3.885,6.746-3.885,12.567c0,7.356,1.722,13.318,4.922,13.318c0.086,0,1.905-0.004,1.989-0.012
				c0.66-0.064,1.243-0.396,1.766-0.926c-0.67-2.323-1.021-5.332-1.021-8.629C12.943,22.886,14.094,18.652,15.8,16.337z"/>
			<path style="fill:#010002;" d="M11.077,5.239c1.063,0,1.924,0.428,1.924-1.483c0-0.128-0.014-0.247-0.02-0.369
				c0-0.025,0.006-0.049,0.006-0.073V1.908c0-1.053-0.855-1.908-1.91-1.908c-1.053,0-1.909,0.855-1.909,1.908v1.405
				c0,0.024,0.004,0.048,0.004,0.073c-0.004,0.123-0.018,0.242-0.018,0.37C9.154,5.667,10.016,5.239,11.077,5.239z"/>
			<rect x="9.454" y="5.722" style="fill:#010002;" width="3.246" height="2.117"/>
			<path style="fill:#010002;" d="M31.79,11.448c0.158-0.492,0.055-1.331,0.055-1.847c0-0.759-0.621-1.376-1.38-1.376h-1.157
				c-0.758,0-1.377,0.617-1.377,1.376c0,0.516-0.108,1.354,0.058,1.847c-1.271,1.019-2.33,3.042-3.024,5.635
				c1.426,2.424,2.348,6.302,2.348,10.685c0,2.998-0.282,5.756-0.83,7.981c0.701,1.009,1.55,1.585,2.537,1.585
				c0.082,0,1.906-0.004,1.992-0.012c3.08-0.305,4.668-6.146,4.668-13.307C35.678,18.194,34.049,13.261,31.79,11.448z"/>
			<path style="fill:#010002;" d="M29.887,5.239c1.062,0,1.922,0.428,1.922-1.483c0-0.128-0.014-0.247-0.02-0.369
				c0-0.025,0.006-0.049,0.006-0.073V1.908C31.796,0.855,30.941,0,29.888,0c-1.054,0-1.908,0.855-1.908,1.908v1.405
				c0,0.024,0.006,0.048,0.009,0.073c-0.009,0.122-0.024,0.241-0.024,0.369C27.962,5.667,28.824,5.239,29.887,5.239z"/>
			<rect x="28.266" y="5.722" style="fill:#010002;" width="3.242" height="2.117"/>
			<g>
				<path style="fill:#010002;" d="M22.251,15.083c0.162-0.493,0.056-1.331,0.056-1.847c0-0.759-0.613-1.374-1.375-1.374h-1.157
					c-0.762,0-1.379,0.615-1.379,1.374c0,0.516-0.11,1.354,0.055,1.847c-2.267,1.812-3.89,6.748-3.89,12.567
					c0,7.354,1.724,13.317,4.922,13.317c0.085,0,1.906-0.004,1.984-0.013c3.086-0.303,4.678-6.143,4.678-13.307
					C26.144,21.831,24.516,16.895,22.251,15.083z"/>
				<path style="fill:#010002;" d="M20.351,8.876c1.061,0,1.922,0.427,1.922-1.483c0-0.128-0.016-0.248-0.022-0.372
					c0.002-0.024,0.009-0.048,0.009-0.072V5.544c0-1.055-0.854-1.909-1.908-1.909c-1.053,0-1.908,0.854-1.908,1.909v1.404
					c0,0.024,0.006,0.048,0.007,0.072c-0.007,0.124-0.022,0.244-0.022,0.372C18.428,9.303,19.29,8.876,20.351,8.876z"/>
				<rect x="18.73" y="9.358" style="fill:#010002;" width="3.243" height="2.116"/>
			</g>
		</g>
	</g>
</g>
<g>
</g>
<g>
</g>
<g>
</g>
<g>
</g>
<g>
</g>
<g>
</g>
<g>
</g>
<g>
</g>
<g>
</g>
<g>
</g>
<g>
</g>
<g>
</g>
<g>
</g>
<g>
</g>
<g>
</g>
</svg>
