<?xml version="1.0" encoding="iso-8859-1"?>
<!-- Generator: Adobe Illustrator 18.1.1, SVG Export Plug-In . SVG Version: 6.00 Build 0)  -->
<svg version="1.1" id="Capa_1" xmlns="http://www.w3.org/2000/svg" xmlns:xlink="http://www.w3.org/1999/xlink" x="0px" y="0px"
	 viewBox="0 0 63.948 63.948" style="enable-background:new 0 0 63.948 63.948;" xml:space="preserve">
<g>
	<g>
		<g>
			<path style="fill:#010002;" d="M32.19,11.299c3.123,0,5.646-2.535,5.646-5.646C37.836,2.527,35.313,0,32.19,0
				c-3.113,0-5.647,2.526-5.646,5.652C26.544,8.764,29.077,11.299,32.19,11.299z"/>
			<path style="fill:#010002;" d="M45.277,31.172V19.221h0.002c-0.516-6.188-7.703-6.103-7.703-6.103h-11.32
				c-6.005,0-7.566,5.264-7.566,5.264l-2.128,7.244h0.009c-0.002,0.032-0.005,0.066-0.005,0.102c0,0.696,0.302,1.318,0.777,1.755
				l6.166,7.492l0.006-0.01c0.024,0.027,0.047,0.049,0.073,0.074c0.327,0.273,0.708,0.436,1.099,0.508l-0.01,25.18
				c0,1.774,1.438,3.221,3.215,3.221c1.781,0,3.221-1.444,3.221-3.221L31.109,34.62h1.441v26.139l0.022,0.021
				c0.021,1.75,1.445,3.162,3.195,3.162c1.771,0,3.211-1.438,3.211-3.202l-0.006-20.117c0.807,0.437,1.729,0.683,2.709,0.683
				c3.148,0,5.705-2.553,5.705-5.707C47.387,33.814,46.563,32.219,45.277,31.172z M21.515,24.913l1.687-6.527h1.492l-0.005,10.549
				L21.515,24.913z M38.966,18.327h1.548v11.685c-0.548,0.114-1.065,0.306-1.544,0.565L38.966,18.327z"/>
		</g>
	</g>
</g>
<g>
</g>
<g>
</g>
<g>
</g>
<g>
</g>
<g>
</g>
<g>
</g>
<g>
</g>
<g>
</g>
<g>
</g>
<g>
</g>
<g>
</g>
<g>
</g>
<g>
</g>
<g>
</g>
<g>
</g>
</svg>
