<?xml version="1.0" encoding="iso-8859-1"?>
<!-- Generator: Adobe Illustrator 18.1.1, SVG Export Plug-In . SVG Version: 6.00 Build 0)  -->
<svg version="1.1" id="Capa_1" xmlns="http://www.w3.org/2000/svg" xmlns:xlink="http://www.w3.org/1999/xlink" x="0px" y="0px"
	 viewBox="0 0 45.324 45.324" style="enable-background:new 0 0 45.324 45.324;" xml:space="preserve">
<g>
	<g>
		<path style="fill:#010002;" d="M41.229,18.438l-0.184-4.179c-2.688-4.351-4.408,1.108-4.408,1.108l-0.004,0.052
			C36.02,5.242,29.777,0,20.93,0C11.612,0,4.054,5.805,4.054,17.084c0,8.309,4.708,16.057,10.908,19.563v8.677h16.266h1.299v-3.513
			v-2.877v-2.871c1.143-1.261,1.971-2.867,2.576-4.691v0.007C42.156,24.816,41.229,18.438,41.229,18.438z M16.174,4.248
			c-1.854,0.811-3.496,2.08-4.932,3.564c-1.428,1.498-2.674,3.204-3.727,5.062c0.567-2.071,1.617-4.013,2.979-5.719
			c0.677-0.862,1.467-1.635,2.323-2.335c0.864-0.691,1.821-1.274,2.835-1.74c1.023-0.446,2.104-0.769,3.206-0.933
			C19.961,2,21.078,1.966,22.17,2.102c2.19,0.248,4.265,1.008,6.106,2.097c-2.053-0.599-4.117-1.05-6.176-1.1
			C20.047,3.053,18.012,3.409,16.174,4.248z M31.228,41.811h-7.484v-2.877h7.483L31.228,41.811L31.228,41.811z"/>
	</g>
</g>
<g>
</g>
<g>
</g>
<g>
</g>
<g>
</g>
<g>
</g>
<g>
</g>
<g>
</g>
<g>
</g>
<g>
</g>
<g>
</g>
<g>
</g>
<g>
</g>
<g>
</g>
<g>
</g>
<g>
</g>
</svg>
