<?xml version="1.0" encoding="iso-8859-1"?>
<!-- Generator: Adobe Illustrator 18.1.1, SVG Export Plug-In . SVG Version: 6.00 Build 0)  -->
<svg version="1.1" id="Capa_1" xmlns="http://www.w3.org/2000/svg" xmlns:xlink="http://www.w3.org/1999/xlink" x="0px" y="0px"
	 viewBox="0 0 36.797 36.797" style="enable-background:new 0 0 36.797 36.797;" xml:space="preserve">
<g>
	<g>
		<g>
			<path style="fill:#010002;" d="M36.693,9.423c-0.385-1.84-2.411-1.903-4.505-1.433l-4.625,6.61
				c-0.43,0.52-1.198,0.592-1.717,0.161c-0.519-0.43-0.591-1.197-0.16-1.716l1.484-4.094c0,0,0.565-6.345-0.283-7.405
				c-2.55-1.594-5.311,0-5.311,0v1.415c0,0-1.097,3.122-2.371,0.809l-0.223-1.64C16.8,0.575,14.25,2.354,14.25,2.354V5.09
				c0,0-1.957,1.441-1.957-0.372c0-1.815,0-1.538,0-1.538c-1.312-2.017-4.887,0-4.887,0v1.416c0,0-0.376,2.753-2.292,1.287
				C5.012,3.072,0.352,5.658,0.352,5.658s-0.855,0.612,0.099,8.505c4.198,0.547,13.487,2.277,14.552,6.945
				c0.785,3.447-2.9,7.499-11.251,12.375v2.477h24.697v-6.652c0.053-0.143,0.102-0.274,0.159-0.427
				C33.013,17.128,37.542,13.469,36.693,9.423z"/>
			<path style="fill:#010002;" d="M3.755,32.492c7.473-4.431,11.08-8.295,10.42-11.195c-0.921-4.043-9.482-5.69-13.61-6.254
				c0.314,2.288,0.789,4.597,1.487,6.759C5.157,31.401,3.841,32.438,3.755,32.492z"/>
		</g>
	</g>
</g>
<g>
</g>
<g>
</g>
<g>
</g>
<g>
</g>
<g>
</g>
<g>
</g>
<g>
</g>
<g>
</g>
<g>
</g>
<g>
</g>
<g>
</g>
<g>
</g>
<g>
</g>
<g>
</g>
<g>
</g>
</svg>
