<?xml version="1.0" encoding="iso-8859-1"?>
<!-- Generator: Adobe Illustrator 18.1.1, SVG Export Plug-In . SVG Version: 6.00 Build 0)  -->
<svg version="1.1" id="Capa_1" xmlns="http://www.w3.org/2000/svg" xmlns:xlink="http://www.w3.org/1999/xlink" x="0px" y="0px"
	 viewBox="0 0 38.127 38.127" style="enable-background:new 0 0 38.127 38.127;" xml:space="preserve">
<g>
	<g>
		<g>
			<path style="fill:#010002;" d="M36.785,18.575c-0.128-1.303-0.397-2.562-0.791-3.769l1.188,0.019
				c-1.248-4.884-4.428-9.272-8.666-11.988c-1.664,0.741-3.221,1.47-4.293,2.668c-1.156,1.239-1.676,2.964-1.77,4.897
				c-0.447-0.875-0.583-1.91-0.441-2.924c0.127-1.021,0.605-2.013,1.305-2.797c0.715-0.771,1.625-1.325,2.578-1.636
				c0.775-0.262,1.582-0.379,2.382-0.364C25.565,1,22.436,0,19.093,0C10.289,0,2.91,6.091,0.942,14.289l1.369,0.021
				c-0.486,1.356-0.832,2.782-0.973,4.266H0.909v1.869h0.346c0.07,9.761,8.029,17.682,17.806,17.682
				c9.778,0,17.737-7.921,17.807-17.682h0.35v-1.869L36.785,18.575L36.785,18.575z M12.358,3.046
				c0.953,0.311,1.857,0.864,2.576,1.636c0.699,0.784,1.177,1.776,1.305,2.797c0.139,1.014,0.009,2.049-0.447,2.924
				c-0.091-1.934-0.607-3.658-1.764-4.897c-1.138-1.271-2.811-2.011-4.586-2.802C10.417,2.61,11.408,2.727,12.358,3.046z
				 M4.904,14.347l28.472,0.421c0.465,1.205,0.793,2.479,0.943,3.808h-1.826c-0.684-1.605-3.061-2.799-5.917-2.799
				s-5.231,1.193-5.915,2.799h-4.26c-0.682-1.605-3.061-2.799-5.916-2.799c-2.854,0-5.234,1.193-5.915,2.799H3.802
				C3.968,17.094,4.34,15.672,4.904,14.347z M19.06,35.678c-8.428,0-15.287-6.822-15.357-15.232H4.57
				c0.684,1.605,3.062,2.799,5.915,2.799c2.855,0,5.234-1.192,5.916-2.799h4.26c0.686,1.605,3.063,2.799,5.915,2.799
				c2.856,0,5.231-1.192,5.917-2.799h1.928C34.35,28.854,27.489,35.678,19.06,35.678z"/>
			<path style="fill:#010002;" d="M28.807,2.703c-0.176-0.016-0.351-0.02-0.53-0.021c0.083,0.05,0.159,0.104,0.239,0.155
				C28.614,2.793,28.712,2.748,28.807,2.703z"/>
			<ellipse style="fill:#010002;" cx="19.06" cy="28.617" rx="3.57" ry="2.021"/>
		</g>
	</g>
</g>
<g>
</g>
<g>
</g>
<g>
</g>
<g>
</g>
<g>
</g>
<g>
</g>
<g>
</g>
<g>
</g>
<g>
</g>
<g>
</g>
<g>
</g>
<g>
</g>
<g>
</g>
<g>
</g>
<g>
</g>
</svg>
