<?xml version="1.0" encoding="iso-8859-1"?>
<!-- Generator: Adobe Illustrator 18.1.1, SVG Export Plug-In . SVG Version: 6.00 Build 0)  -->
<svg version="1.1" id="Capa_1" xmlns="http://www.w3.org/2000/svg" xmlns:xlink="http://www.w3.org/1999/xlink" x="0px" y="0px"
	 viewBox="0 0 45.339 45.339" style="enable-background:new 0 0 45.339 45.339;" xml:space="preserve">
<g>
	<g>
		<g>
			<path style="fill:#010002;" d="M41.811,18.976l1.347,0.02c-1.41-5.521-5.008-10.48-9.8-13.551
				c-1.882,0.837-3.64,1.66-4.853,3.014c-1.309,1.402-1.896,3.352-2.001,5.54c-0.505-0.991-0.659-2.162-0.501-3.309
				c0.145-1.152,0.687-2.276,1.478-3.159c0.81-0.875,1.837-1.499,2.914-1.85c0.877-0.298,1.789-0.432,2.69-0.414
				C30.021,3.367,26.483,0,22.704,0c-3.998,0-7.734,3.346-10.922,5.276c-4.747,2.876-8.268,7.569-9.601,13.115l1.55,0.022
				c-0.551,1.536-0.941,3.146-1.102,4.826l-0.094,2.11c0.08,11.036,9.077,19.99,20.131,19.99c11.056,0,20.054-8.954,20.133-19.99
				l-0.093-2.11C42.563,21.764,42.255,20.341,41.811,18.976z M15.088,5.681C16.166,6.032,17.19,6.656,18,7.531
				c0.793,0.883,1.333,2.007,1.478,3.159c0.156,1.146,0.01,2.317-0.505,3.309c-0.102-2.188-0.687-4.138-1.997-5.54
				c-1.285-1.438-3.177-2.273-5.183-3.166C12.894,5.187,14.015,5.32,15.088,5.681z M22.074,42.04
				c-9.005-0.345-16.037-7.625-15.705-16.265c0.028-0.807,0.13-1.594,0.282-2.363c1.371,1.438,3.976,2.428,5.693,2.428h5.961
				c2.418,0,2.144-1.961,2.144-4.38c0-1.509-0.763-2.838-1.926-3.627l7.387,0.009c-1.152,0.79-1.912,2.114-1.912,3.618
				c0,2.419-0.275,4.38,2.145,4.38h5.958c2.062,0,5.403-1.425,6.351-3.339c0.392,1.441,0.582,2.959,0.521,4.522
				C38.642,35.66,31.076,42.384,22.074,42.04z"/>
			<path style="fill:#010002;" d="M33.69,5.292c-0.202-0.02-0.397-0.021-0.604-0.025c0.099,0.058,0.185,0.12,0.272,0.178
				C33.469,5.394,33.579,5.343,33.69,5.292z"/>
			<path style="fill:#010002;" d="M20.115,33.055c-0.316-0.255-0.568-0.457-0.809-0.576l-0.501,1
				c0.137,0.065,0.366,0.252,0.61,0.446c0.819,0.658,2.15,1.731,3.948,1.731c1.312,0,2.864-0.57,4.649-2.276l-0.772-0.807
				C23.715,35.945,21.547,34.207,20.115,33.055z"/>
		</g>
	</g>
</g>
<g>
</g>
<g>
</g>
<g>
</g>
<g>
</g>
<g>
</g>
<g>
</g>
<g>
</g>
<g>
</g>
<g>
</g>
<g>
</g>
<g>
</g>
<g>
</g>
<g>
</g>
<g>
</g>
<g>
</g>
</svg>
