<?xml version="1.0" encoding="iso-8859-1"?>
<!-- Generator: Adobe Illustrator 18.1.1, SVG Export Plug-In . SVG Version: 6.00 Build 0)  -->
<svg version="1.1" id="Capa_1" xmlns="http://www.w3.org/2000/svg" xmlns:xlink="http://www.w3.org/1999/xlink" x="0px" y="0px"
	 viewBox="0 0 53.895 53.895" style="enable-background:new 0 0 53.895 53.895;" xml:space="preserve">
<g>
	<g>
		<g>
			<path style="fill:#010002;" d="M31.705,4.76c0,2.628-2.132,4.762-4.756,4.762c-2.628,0-4.762-2.134-4.762-4.762
				S24.321,0,26.949,0C29.573,0,31.705,2.132,31.705,4.76z"/>
			<path style="fill:#010002;" d="M34.53,35.922L34.528,51.18c0,1.5,1.219,2.715,2.714,2.715c1.5,0,2.714-1.215,2.714-2.715V31
				l-7.286-1.826L32.649,15.08h5.182v-0.008c0.001,0,9.143,0,9.146,0c1.11,0,2.008-0.898,2.008-2.012
				c0-1.106-0.896-2.004-2.008-2.004c-0.004,0-9.146,0-9.146,0H26.95H16.064l0,0c0,0-9.14,0-9.148,0
				C5.807,11.057,4.91,11.96,4.91,13.07c0,1.106,0.897,2.01,2.006,2.01c0.009,0,9.148,0,9.148,0h4.565l-0.034,14.094L13.306,31
				v20.18c0,1.5,1.217,2.715,2.717,2.715c1.495,0,2.71-1.215,2.71-2.715L18.73,35.922H34.53z"/>
		</g>
	</g>
</g>
<g>
</g>
<g>
</g>
<g>
</g>
<g>
</g>
<g>
</g>
<g>
</g>
<g>
</g>
<g>
</g>
<g>
</g>
<g>
</g>
<g>
</g>
<g>
</g>
<g>
</g>
<g>
</g>
<g>
</g>
</svg>
