<?xml version="1.0" encoding="iso-8859-1"?>
<!-- Generator: Adobe Illustrator 18.1.1, SVG Export Plug-In . SVG Version: 6.00 Build 0)  -->
<svg version="1.1" id="Capa_1" xmlns="http://www.w3.org/2000/svg" xmlns:xlink="http://www.w3.org/1999/xlink" x="0px" y="0px"
	 viewBox="0 0 50.806 50.806" style="enable-background:new 0 0 50.806 50.806;" xml:space="preserve">
<g>
	<g>
		<g>
			<path style="fill:#010002;" d="M46.932,13.171H26.477L38.641,1.106l-1.064-1.073L25.371,12.139L11.453,0l-0.994,1.14
				l13.794,12.031H3.875v30.958H35.77c0.014,0.725,0.306,2.439,2.771,2.439c0,0,4.238-0.184,4.238,4.238h1.34
				c0,0,0.556-5.836-5.663-5.836c0,0-1.202-0.103-1.054-0.842h9.529V13.171H46.932z M44.6,41.111H6.173V16.188H44.6V41.111z"/>
			<rect x="19.384" y="45.107" style="fill:#010002;" width="12.386" height="2.201"/>
			<rect x="13.045" y="48.117" style="fill:#010002;" width="25.063" height="1.853"/>
			<path style="fill:#010002;" d="M25.403,29.938c3.207,0,5.806-2.6,5.806-5.807s-2.6-5.806-5.806-5.806
				c-3.208,0-5.807,2.599-5.807,5.806S22.196,29.938,25.403,29.938z M23.548,28.967c-0.115,0.059-0.222,0.115-0.308,0.157
				c-0.716-0.302-1.353-0.753-1.877-1.313c0.013-0.084,0.032-0.201,0.054-0.33c0.053-0.325,0.117-0.729,0.142-0.89
				c0.003-0.022,0.007-0.04,0.008-0.051c0.042,0.011,0.167,0.045,0.335,0.09c0.466,0.126,1.251,0.338,1.41,0.381
				c0.014,0.005,0.023,0.007,0.026,0.007c0.007,0.013,0.052,0.084,0.118,0.188c0.152,0.242,0.42,0.662,0.618,0.977
				c0.087,0.139,0.162,0.256,0.206,0.326c0.021,0.03,0.033,0.051,0.042,0.063C24.24,28.615,23.868,28.805,23.548,28.967z
				 M25.398,22.266c0.014,0.009,0.06,0.042,0.13,0.091c0.392,0.278,1.519,1.074,1.6,1.131c0,0.003-0.003,0.013-0.006,0.021
				c-0.001,0.002-0.002,0.006-0.002,0.008c-0.083,0.259-0.626,1.92-0.66,2.025c-0.008,0-0.022,0-0.046,0c-0.059,0-0.163,0-0.297,0
				c-0.58,0-1.691,0-1.78,0c-0.034-0.105-0.574-1.767-0.659-2.025c0-0.001-0.001-0.005-0.003-0.008
				c-0.003-0.009-0.006-0.018-0.007-0.021c0.082-0.058,1.208-0.854,1.602-1.131C25.337,22.309,25.384,22.275,25.398,22.266z
				 M25.269,22.146v-1.582l0.129,0.051l0.13-0.051v1.582l-0.13-0.092L25.269,22.146z M27.355,26.869l-0.01,0.001l-0.158,0.225
				l-0.967-1.379h0.316L27.355,26.869z M24.234,25.716h0.317l-0.969,1.365l-0.132-0.21L24.234,25.716z M25.374,28.643
				c-0.292,0-0.578-0.028-0.854-0.082l-0.194-0.308c0.335,0.084,0.687,0.129,1.048,0.129c0.384,0,0.755-0.051,1.106-0.146
				l-0.197,0.313C25.99,28.611,25.686,28.643,25.374,28.643z M27.547,29.107c-0.089-0.045-0.197-0.099-0.309-0.154
				c-0.321-0.16-0.684-0.339-0.764-0.379c0.01-0.016,0.025-0.041,0.049-0.076c0.049-0.078,0.123-0.196,0.211-0.335
				c0.285-0.451,0.699-1.104,0.722-1.142c0.043-0.012,0.86-0.233,1.375-0.373c0.187-0.049,0.333-0.09,0.388-0.104
				c0.004-0.001,0.008-0.002,0.01-0.004c0.018,0.092,0.094,0.516,0.158,0.876c0.022,0.122,0.043,0.235,0.061,0.327
				C28.924,28.324,28.275,28.792,27.547,29.107z M29.352,26.328l-0.365,0.099c0.397-0.607,0.647-1.321,0.697-2.088l0.231,0.292
				C29.839,25.243,29.643,25.816,29.352,26.328z M28.829,22.947c0.012-0.171,0.062-0.86,0.095-1.337
				c0.012-0.17,0.021-0.313,0.026-0.396c0.002-0.026,0.004-0.047,0.005-0.06c0.091,0.016,0.504,0.087,0.859,0.148
				c0.125,0.022,0.242,0.042,0.334,0.058c0.379,0.667,0.623,1.419,0.694,2.222c-0.069,0.065-0.153,0.146-0.243,0.234
				c-0.26,0.25-0.563,0.542-0.629,0.606c-0.008-0.008-0.019-0.022-0.033-0.041c-0.049-0.061-0.14-0.174-0.246-0.31
				c-0.229-0.287-0.537-0.674-0.719-0.9c-0.082-0.104-0.138-0.175-0.146-0.186C28.827,22.983,28.828,22.968,28.829,22.947z
				 M27.227,23.748l0.099-0.306l1.323-0.4l0.168,0.205L27.227,23.748z M28.79,21.025l-0.027,0.372
				c-0.48-0.609-1.123-1.087-1.859-1.368l0.348-0.135C27.842,20.159,28.365,20.547,28.79,21.025z M24.077,18.997
				c0.059-0.116,0.113-0.222,0.154-0.301c0.367-0.079,0.75-0.122,1.142-0.122s0.773,0.043,1.143,0.121
				c0.045,0.08,0.104,0.188,0.168,0.306c0.17,0.308,0.375,0.679,0.424,0.764c-0.017,0.006-0.045,0.018-0.084,0.033
				c-0.086,0.033-0.217,0.084-0.371,0.144c-0.379,0.148-0.887,0.346-1.125,0.438c-0.073,0.029-0.12,0.047-0.13,0.051
				c-0.009-0.004-0.056-0.022-0.129-0.051c-0.242-0.094-0.762-0.297-1.145-0.445c-0.16-0.062-0.295-0.115-0.375-0.146
				c-0.028-0.01-0.05-0.019-0.063-0.024C23.729,19.677,23.919,19.306,24.077,18.997z M23.519,19.883l0.35,0.137
				c-0.726,0.27-1.358,0.73-1.841,1.32l-0.025-0.366C22.424,20.513,22.941,20.14,23.519,19.883z M22.144,23.03l1.328,0.413
				l0.1,0.306l-1.574-0.517L22.144,23.03z M20.812,24.411c-0.092-0.089-0.406-0.392-0.661-0.638
				c-0.095-0.092-0.179-0.174-0.243-0.235c0.075-0.782,0.316-1.516,0.686-2.168c0.087-0.015,0.206-0.036,0.334-0.058
				c0.366-0.064,0.817-0.141,0.913-0.158v0.002c0.004,0.048,0.016,0.198,0.029,0.391c0.033,0.476,0.085,1.22,0.097,1.399
				c0.002,0.021,0.003,0.036,0.003,0.04c-0.008,0.011-0.064,0.082-0.149,0.186c-0.193,0.243-0.533,0.67-0.763,0.959
				c-0.117,0.146-0.205,0.258-0.233,0.292C20.823,24.421,20.815,24.416,20.812,24.411z M20.842,24.681l0.228-0.287
				c0.056,0.739,0.298,1.427,0.682,2.017l-0.345-0.073c-0.298-0.509-0.486-1.05-0.568-1.66L20.842,24.681z"/>
		</g>
	</g>
</g>
<g>
</g>
<g>
</g>
<g>
</g>
<g>
</g>
<g>
</g>
<g>
</g>
<g>
</g>
<g>
</g>
<g>
</g>
<g>
</g>
<g>
</g>
<g>
</g>
<g>
</g>
<g>
</g>
<g>
</g>
</svg>
