<?xml version="1.0" encoding="iso-8859-1"?>
<!-- Generator: Adobe Illustrator 18.1.1, SVG Export Plug-In . SVG Version: 6.00 Build 0)  -->
<svg version="1.1" id="Capa_1" xmlns="http://www.w3.org/2000/svg" xmlns:xlink="http://www.w3.org/1999/xlink" x="0px" y="0px"
	 viewBox="0 0 56.226 56.226" style="enable-background:new 0 0 56.226 56.226;" xml:space="preserve">
<g>
	<g>
		<path style="fill:#010002;" d="M56.202,25.514c-0.028-0.079-0.116-0.079-0.154-0.079c-0.056,0-0.133,0.001-0.222,0.006
			c-0.98,0.036-3.581,0.139-7.221-2.363c-2.101-1.441-9.547-5.802-17.17-1.307c-6.248,3.683-9.145,0.929-9.169,0.904
			c-0.913-0.977-1.249-1.731-1.002-2.24c0.51-1.045,3.294-0.814,3.315-0.814c5.879,1.653,10.394,0.539,14.63-3.609l-0.133-0.163
			c-6.314,4.081-10.774,2.619-15.496,1.072c-1.177-0.386-2.988-0.901-2.988-0.901s-0.294-0.156-0.915-0.261
			c-3.17-0.228-4.43,0.837-5.721,2.104c-0.805-0.179-1.64-0.283-2.5-0.283C5.128,17.581,0,22.71,0,29.04
			c0,6.328,5.128,11.458,11.458,11.458c4.531,0,8.438-2.639,10.296-6.456c0.278,0.207,0.574,0.392,0.894,0.525
			c0.564,0.238,1.182,0.356,1.817,0.356c0.716,0,1.461-0.148,2.197-0.448c1.235-0.641,2.213-1.32,3.074-1.922
			c1.815-1.266,3.125-2.18,5.259-1.54l0.098-0.185c-2.562-2.068-5.435-0.405-6.662,0.306c-0.229,0.134-0.466,0.27-0.526,0.272
			l-0.038,0.007c-0.577,0.218-1.713,0.281-2.44-0.263c-0.506-0.378-0.729-0.979-0.667-1.771c0.124-0.733,0.574-1.293,1.334-1.664
			c2.268-1.108,6.533-0.246,8.097,0.593c2.277,1.221,5.344,1.943,7.109,0.324c0.256-0.198,0.51-0.53,0.799-0.912
			c0.688-0.896,1.539-2.009,2.844-1.791l0.08-0.189c-1.275-0.917-2.756-0.088-3.945,0.577c-0.607,0.341-1.18,0.662-1.619,0.692
			l-0.125,0.011c-1.302,0.097-2.43,0.178-3.471-1.294c-0.705-0.711-0.822-1.409-0.346-2.021c1.26-1.612,6.312-2.225,10.156,0.063
			c5.031,2.988,10.307,2.022,10.491,1.869l0.062-0.054L56.202,25.514z M8.841,18.911c0.117-0.23,0.222-0.439,0.305-0.597
			c0.726-0.154,1.479-0.24,2.254-0.24c0.773,0,1.526,0.086,2.253,0.239c0.087,0.159,0.204,0.371,0.333,0.604
			c0.336,0.607,0.741,1.338,0.834,1.506c-0.032,0.013-0.092,0.035-0.166,0.064c-0.169,0.065-0.43,0.167-0.732,0.285
			c-0.749,0.291-1.751,0.682-2.218,0.863c-0.146,0.055-0.236,0.092-0.257,0.099c-0.016-0.007-0.111-0.044-0.254-0.099
			c-0.475-0.187-1.505-0.587-2.259-0.88c-0.317-0.121-0.582-0.224-0.739-0.288c-0.058-0.021-0.101-0.036-0.124-0.046
			C8.154,20.252,8.529,19.517,8.841,18.911z M9.352,31.825c-0.065-0.205-1.133-3.484-1.298-3.993
			c-0.004-0.007-0.004-0.014-0.006-0.018c-0.007-0.017-0.012-0.034-0.014-0.041c0.161-0.113,2.384-1.685,3.159-2.233
			c0.134-0.096,0.226-0.16,0.254-0.18c0.028,0.02,0.121,0.084,0.257,0.18c0.774,0.549,2.997,2.12,3.157,2.233
			c-0.002,0.007-0.006,0.024-0.011,0.041c-0.003,0.004-0.003,0.011-0.005,0.018c-0.167,0.509-1.235,3.788-1.302,3.993
			c-0.017,0-0.047,0-0.09,0c-0.116,0-0.324,0-0.587,0C11.719,31.825,9.527,31.825,9.352,31.825z M9.777,32.166l-1.911,2.696
			l-0.263-0.416l1.547-2.28L9.777,32.166L9.777,32.166z M11.193,25.124v-3.122l0.254,0.099l0.257-0.099v3.121l-0.257-0.183
			L11.193,25.124z M14.417,20.945l0.687-0.269c1.166,0.525,2.197,1.29,3.037,2.234l-0.052,0.734
			C17.14,22.44,15.874,21.499,14.417,20.945z M13.693,32.166l1.617,2.276l-0.019,0.004l-0.312,0.442l-1.911-2.724L13.693,32.166
			L13.693,32.166z M15.056,28.285l0.195-0.602l2.611-0.79l0.329,0.401L15.056,28.285z M7.739,20.658l0.689,0.27
			c-1.43,0.533-2.68,1.442-3.631,2.604L4.748,22.81C5.58,21.901,6.598,21.166,7.739,20.658z M5.024,26.867l2.622,0.816l0.195,0.602
			l-3.105-1.021L5.024,26.867z M2.396,29.59c-0.18-0.172-0.801-0.771-1.304-1.259c-0.186-0.18-0.354-0.341-0.479-0.461
			c0.149-1.544,0.624-2.99,1.351-4.279c0.175-0.03,0.408-0.07,0.661-0.113c0.723-0.126,1.615-0.278,1.806-0.312
			c0,0.002,0,0.004,0,0.006c0.006,0.094,0.027,0.389,0.054,0.77c0.066,0.94,0.17,2.407,0.192,2.762
			c0.003,0.042,0.005,0.07,0.006,0.08c-0.016,0.021-0.127,0.16-0.294,0.367c-0.381,0.479-1.051,1.32-1.505,1.892
			c-0.229,0.287-0.404,0.509-0.459,0.575C2.419,29.615,2.406,29.601,2.396,29.59z M2.452,30.12l0.006,0.007l0.45-0.566
			c0.109,1.461,0.588,2.815,1.345,3.979l-0.68-0.143C2.985,32.391,2.614,31.321,2.452,30.12z M7.797,38.582
			C7.571,38.7,7.36,38.809,7.19,38.894c-1.411-0.599-2.67-1.488-3.703-2.595c0.026-0.163,0.063-0.395,0.106-0.647
			c0.103-0.646,0.23-1.441,0.279-1.757c0.008-0.044,0.014-0.077,0.017-0.102c0.083,0.022,0.331,0.091,0.663,0.179
			c0.92,0.251,2.468,0.669,2.781,0.757c0.028,0.005,0.046,0.011,0.052,0.013c0.014,0.021,0.104,0.16,0.233,0.368
			c0.3,0.475,0.827,1.307,1.218,1.926c0.17,0.272,0.319,0.503,0.409,0.646c0.038,0.059,0.062,0.101,0.081,0.125
			C9.163,37.888,8.427,38.263,7.797,38.582z M11.4,37.944c-0.577,0-1.14-0.059-1.687-0.162l-0.382-0.604
			c0.662,0.164,1.355,0.254,2.069,0.254c0.755,0,1.488-0.101,2.186-0.285l-0.393,0.616C12.614,37.879,12.014,37.944,11.4,37.944z
			 M15.687,38.86c-0.176-0.088-0.389-0.194-0.609-0.304c-0.633-0.317-1.347-0.672-1.505-0.75c0.018-0.029,0.051-0.082,0.097-0.151
			c0.096-0.151,0.243-0.388,0.417-0.661c0.56-0.891,1.378-2.18,1.423-2.252c0.084-0.021,1.697-0.46,2.715-0.734
			c0.366-0.101,0.655-0.179,0.765-0.208c0.006-0.001,0.017-0.005,0.02-0.005c0.034,0.179,0.186,1.015,0.313,1.727
			c0.044,0.241,0.084,0.465,0.116,0.646C18.404,37.313,17.125,38.238,15.687,38.86z M19.245,33.374l-0.718,0.195
			c0.786-1.197,1.278-2.606,1.375-4.121l0.458,0.578C20.21,31.233,19.822,32.366,19.245,33.374z M20.471,29.619
			c-0.015-0.016-0.037-0.047-0.064-0.08c-0.098-0.122-0.276-0.344-0.489-0.612c-0.449-0.564-1.059-1.329-1.416-1.774
			c-0.162-0.207-0.273-0.347-0.289-0.367c0-0.01,0.002-0.038,0.004-0.08c0.024-0.34,0.119-1.697,0.187-2.639
			c0.023-0.336,0.042-0.619,0.053-0.778c0.002-0.055,0.006-0.095,0.009-0.12c0.179,0.032,0.995,0.172,1.693,0.293
			c0.248,0.043,0.479,0.082,0.664,0.113c0.749,1.315,1.228,2.803,1.368,4.385c-0.136,0.129-0.302,0.291-0.481,0.462
			C21.199,28.916,20.602,29.491,20.471,29.619z"/>
	</g>
</g>
<g>
</g>
<g>
</g>
<g>
</g>
<g>
</g>
<g>
</g>
<g>
</g>
<g>
</g>
<g>
</g>
<g>
</g>
<g>
</g>
<g>
</g>
<g>
</g>
<g>
</g>
<g>
</g>
<g>
</g>
</svg>
