<?xml version="1.0" encoding="iso-8859-1"?>
<!-- Generator: Adobe Illustrator 18.1.1, SVG Export Plug-In . SVG Version: 6.00 Build 0)  -->
<svg version="1.1" id="Capa_1" xmlns="http://www.w3.org/2000/svg" xmlns:xlink="http://www.w3.org/1999/xlink" x="0px" y="0px"
	 viewBox="0 0 44.839 44.839" style="enable-background:new 0 0 44.839 44.839;" xml:space="preserve">
<g>
	<g>
		<g>
			<path style="fill:#010002;" d="M0,8.648V36.19h44.839V8.648H0z M43.328,34.68H1.512V10.159h41.816V34.68z"/>
			<path style="fill:#010002;" d="M18.423,22.419c0,1.988,1.463,3.627,3.367,3.933v-7.867C19.886,18.79,18.423,20.431,18.423,22.419
				z"/>
			<rect x="35.77" y="17.885" style="fill:#010002;" width="4.283" height="9.068"/>
			<path style="fill:#010002;" d="M26.417,22.419c0-2.032-1.528-3.696-3.493-3.946v7.892C24.887,26.115,26.417,24.452,26.417,22.419
				z"/>
			<rect x="4.912" y="17.885" style="fill:#010002;" width="4.283" height="9.068"/>
			<path style="fill:#010002;" d="M41.43,16.374v-4.535H3.409v4.535h7.297v12.091H3.409V33h18.38v-5.137
				c-2.738-0.316-4.878-2.623-4.878-5.444c0-2.822,2.14-5.128,4.878-5.446v-5.124h1.134v5.113c2.798,0.258,5.004,2.591,5.004,5.458
				c0,2.865-2.206,5.199-5.004,5.458v5.123H41.43v-4.535h-7.17V16.373L41.43,16.374L41.43,16.374z"/>
		</g>
	</g>
</g>
<g>
</g>
<g>
</g>
<g>
</g>
<g>
</g>
<g>
</g>
<g>
</g>
<g>
</g>
<g>
</g>
<g>
</g>
<g>
</g>
<g>
</g>
<g>
</g>
<g>
</g>
<g>
</g>
<g>
</g>
</svg>
