<?xml version="1.0" encoding="iso-8859-1"?>
<!-- Generator: Adobe Illustrator 18.1.1, SVG Export Plug-In . SVG Version: 6.00 Build 0)  -->
<svg version="1.1" id="Capa_1" xmlns="http://www.w3.org/2000/svg" xmlns:xlink="http://www.w3.org/1999/xlink" x="0px" y="0px"
	 viewBox="0 0 44.777 44.777" style="enable-background:new 0 0 44.777 44.777;" xml:space="preserve">
<g>
	<g>
		<g>
			<polygon style="fill:#010002;" points="32.587,32.078 31.806,28.577 28.312,29.386 29.092,32.887 			"/>
			<polygon style="fill:#010002;" points="25.308,15.905 25.978,18.922 29.476,18.113 28.802,15.096 			"/>
			<polygon style="fill:#010002;" points="27.177,24.294 28.019,28.067 31.515,27.257 30.673,23.486 			"/>
			<polygon style="fill:#010002;" points="30.642,36.876 32.851,33.404 29.388,34.208 30.013,37.022 			"/>
			<polygon style="fill:#010002;" points="26.881,22.975 30.377,22.166 29.767,19.432 26.272,20.24 			"/>
			<path style="fill:#010002;" d="M24.663,13.024l0.35,1.562l3.495-0.808l-0.214-0.958C27.074,12.646,25.841,12.72,24.663,13.024z"
				/>
			<polygon style="fill:#010002;" points="31.082,19.129 31.692,21.863 34.503,21.212 33.894,18.478 			"/>
			<polygon style="fill:#010002;" points="32.828,26.952 35.638,26.301 34.795,22.53 31.987,23.181 			"/>
			<polygon style="fill:#010002;" points="33.121,28.272 33.899,31.753 36.085,28.311 35.933,27.622 			"/>
			<polygon style="fill:#010002;" points="32.183,14.312 30.116,14.79 30.789,17.809 33.601,17.157 33.095,14.894 			"/>
			<path style="fill:#010002;" d="M29.821,13.471l0.476-0.11c-0.183-0.067-0.36-0.148-0.545-0.205L29.821,13.471z"/>
			<path style="fill:#010002;" d="M25.276,39.749h2.676c0.377-0.267,0.747-0.552,1.086-0.877l-0.049-0.226l-3.766,0.869
				L25.276,39.749z"/>
			<path style="fill:#010002;" d="M37.435,20.532c-0.25-0.917-0.638-1.798-1.162-2.604l-1.062,0.245l0.608,2.735L37.435,20.532z"/>
			<path style="fill:#010002;" d="M34.916,16.852l0.454-0.104c-0.196-0.217-0.398-0.425-0.616-0.625L34.916,16.852z"/>
			<path style="fill:#010002;" d="M36.112,22.226l0.842,3.771l0.32-0.075c0.449-1.326,0.582-2.715,0.418-4.061L36.112,22.226z"/>
			<path style="fill:#010002;" d="M39.31,15.27c-0.871-0.555-1.795-1.019-2.789-1.38c-0.332-0.118-0.672-0.221-1.02-0.312
				c0.159,0.006,0.321,0.015,0.477,0.015c1.06-0.003,2.086-0.124,3.094-0.347s1.99-0.549,2.949-0.996
				c0.955-0.455,1.891-1.005,2.756-1.858c-1.147-0.403-2.227-0.504-3.285-0.513c-1.055,0.004-2.085,0.126-3.092,0.351
				c-1.008,0.228-1.989,0.555-2.948,0.999c-0.14,0.068-0.278,0.144-0.417,0.214c0.113-0.107,0.232-0.21,0.343-0.32
				c0.744-0.748,1.386-1.562,1.94-2.432c0.558-0.868,1.019-1.796,1.381-2.788c0.353-0.998,0.625-2.048,0.634-3.264
				c-1.099,0.526-1.931,1.218-2.685,1.96c-0.744,0.75-1.385,1.563-1.938,2.436c-0.549,0.872-1.013,1.799-1.376,2.79
				c-0.052,0.148-0.096,0.298-0.143,0.446c0.004-0.155,0.013-0.312,0.015-0.467C33.2,8.747,33.08,7.716,32.857,6.71
				c-0.223-1.007-0.549-1.991-0.994-2.948c-0.457-0.955-1.006-1.889-1.86-2.757C29.6,2.152,29.5,3.233,29.491,4.29
				c0.002,1.056,0.124,2.085,0.351,3.093c0.227,1.005,0.555,1.989,0.999,2.947c0.065,0.141,0.144,0.277,0.212,0.417
				c-0.104-0.114-0.209-0.232-0.318-0.343c-0.75-0.744-1.562-1.386-2.43-1.941c-0.873-0.556-1.799-1.019-2.789-1.381
				c-0.998-0.352-2.05-0.623-3.265-0.633c0.526,1.097,1.217,1.931,1.96,2.685c0.748,0.744,1.563,1.387,2.434,1.938
				c0.875,0.551,1.799,1.016,2.793,1.377c0.998,0.351,2.045,0.624,3.258,0.637c0.203,0.071,0.396,0.122,0.595,0.173
				c-0.011,0-0.021,0-0.031,0c0.523,1.095,1.216,1.931,1.958,2.684c0.75,0.744,1.563,1.386,2.436,1.938
				c0.871,0.553,1.8,1.017,2.789,1.378c0.998,0.352,2.049,0.624,3.262,0.637c-0.525-1.092-1.219-1.925-1.961-2.682
				C40.992,16.468,40.181,15.826,39.31,15.27z"/>
			<path style="fill:#010002;" d="M22.75,39.852c0.771-0.779,1.433-1.652,1.972-2.595l0.211,0.942l3.762-0.871l-0.627-2.815
				l-2.365,0.548c0.158-0.479,0.279-0.973,0.374-1.475l1.698-0.395l-0.781-3.502L26.17,29.88c-0.063-0.45-0.146-0.893-0.258-1.327
				l0.788-0.182l-0.841-3.772l-1.551,0.358c-0.271-0.41-0.566-0.806-0.887-1.183l2.145-0.498l-0.61-2.731l-3.417,0.792
				c0.041-0.36,0.071-0.725,0.071-1.098c0-0.102-0.01-0.203-0.014-0.305l3.066-0.71l-0.672-3.018l-2.965,0.687
				c-0.16-0.437-0.35-0.854-0.567-1.257l3.235-0.749l-0.318-1.437c-1.106,0.468-2.113,1.171-2.981,2.06
				c-1.296-2.318-3.515-3.965-6.105-4.346c-0.258,0.54-0.623,1.051-1.144,1.506c-0.572-0.553-1.02-1.026-1.408-1.462
				c-4.005,0.727-7.06,4.489-7.06,9.03c0,0.569,0.055,1.128,0.147,1.67C1.88,24.173,0,27.606,0,31.455
				c0,3.248,1.348,6.19,3.534,8.396L22.75,39.852L22.75,39.852z"/>
			<path style="fill:#010002;" d="M14.287,11.167c0.116-0.241,0.203-0.492,0.278-0.745c-0.017-0.006-0.033-0.008-0.049-0.014
				c0.025-0.423,0.124-0.78,0.265-1.098c0.091-1.173-0.183-2.399-0.845-3.475c-0.658-1.096-1.754-1.999-2.995-2.387
				C9.693,3.066,8.343,3.166,7.186,3.984c0.709,1.238,1.18,2.044,1.523,2.745c0.344,0.69,0.593,1.214,0.932,1.755
				c0.34,0.538,0.752,1.108,1.29,1.785c0.241,0.295,0.506,0.607,0.804,0.941c0.458-0.083,0.928-0.137,1.408-0.137
				C13.533,11.074,13.914,11.112,14.287,11.167z"/>
			<path style="fill:#010002;" d="M14.565,10.422c0.828,0.234,1.417,0.302,1.976,0.318c0.557,0,1.045-0.076,1.502-0.225
				c0.46-0.149,0.887-0.382,1.332-0.707c0.442-0.361,0.896-0.748,1.432-1.481c-0.58-0.676-1.245-0.98-1.903-1.124
				c-0.66-0.135-1.318-0.081-1.921,0.123c-0.604,0.199-1.157,0.552-1.604,1.05c-0.231,0.269-0.438,0.575-0.597,0.935
				c-0.002,0.019,0.002,0.039,0,0.058C14.744,9.725,14.666,10.074,14.565,10.422z"/>
			<polygon style="fill:#010002;" points="2.879,43.772 34.749,43.772 35.869,40.415 1.759,40.415 			"/>
		</g>
	</g>
</g>
<g>
</g>
<g>
</g>
<g>
</g>
<g>
</g>
<g>
</g>
<g>
</g>
<g>
</g>
<g>
</g>
<g>
</g>
<g>
</g>
<g>
</g>
<g>
</g>
<g>
</g>
<g>
</g>
<g>
</g>
</svg>
