<?xml version="1.0" encoding="iso-8859-1"?>
<!-- Generator: Adobe Illustrator 18.1.1, SVG Export Plug-In . SVG Version: 6.00 Build 0)  -->
<svg version="1.1" id="Capa_1" xmlns="http://www.w3.org/2000/svg" xmlns:xlink="http://www.w3.org/1999/xlink" x="0px" y="0px"
	 viewBox="0 0 48.077 48.077" style="enable-background:new 0 0 48.077 48.077;" xml:space="preserve">
<g>
	<g>
		<path style="fill:#010002;" d="M32.265,11.73v-0.031h-0.271c-0.945-0.108-1.833-0.088-2.542,0h-4.353l3.883-6.375
			c8.267,1.897,9.644-4.1,9.644-4.1c-3.854-2.755-9.644,0-9.644,0s-2.354,6.31-4.152,10.475h-3.229
			c-1.325-3.325-2.507-6.489-2.507-6.489s-5.788-2.755-9.645,0c0,0,1.379,5.995,9.645,4.1l1.457,2.39h-8.864v36.377h20.579v-15.06
			c5.888-8.449,7.67-14.38,5.426-18.096C36.458,12.875,34.265,12.007,32.265,11.73z M21.242,31.582
			c-0.013,0.034-0.021,0.063-0.032,0.099l0.032,0.05v11.898h-5.695V16.07h5.695V31.582z M32.265,24.626V16.22
			c0.686,0.16,1.332,0.449,1.649,0.979C34.256,17.76,34.824,19.677,32.265,24.626z"/>
	</g>
</g>
<g>
</g>
<g>
</g>
<g>
</g>
<g>
</g>
<g>
</g>
<g>
</g>
<g>
</g>
<g>
</g>
<g>
</g>
<g>
</g>
<g>
</g>
<g>
</g>
<g>
</g>
<g>
</g>
<g>
</g>
</svg>
