<?xml version="1.0" encoding="iso-8859-1"?>
<!-- Generator: Adobe Illustrator 18.1.1, SVG Export Plug-In . SVG Version: 6.00 Build 0)  -->
<svg version="1.1" id="Capa_1" xmlns="http://www.w3.org/2000/svg" xmlns:xlink="http://www.w3.org/1999/xlink" x="0px" y="0px"
	 viewBox="0 0 57.866 57.866" style="enable-background:new 0 0 57.866 57.866;" xml:space="preserve">
<g>
	<g>
		<g>
			<circle style="fill:#010002;" cx="22.953" cy="5.781" r="5.781"/>
			<path style="fill:#010002;" d="M44.45,54.895c-0.974-2.805-1.048-4.563-7.337-3.121l-8.682-19.119
				c0.281-0.006,0.563-0.063,0.835-0.184c1.112-0.484,1.619-1.777,1.132-2.889l-5.676-13.01c-0.229-0.521-0.643-0.905-1.127-1.12
				c-0.616-0.504-1.362-0.868-2.203-1.021c-2.621-0.472-5.129,1.271-5.604,3.892l-2.341,13c-0.29,1.602,0.252,3.157,1.312,4.237
				v19.896c0,1.33,1.078,2.41,2.412,2.41c1.332,0,2.411-1.08,2.411-2.41v-1.319c1.331,0,2.412-1.08,2.412-2.412v-16.58
				c0.468-0.597,0.804-1.312,0.946-2.107l1.22-6.771l2.219,5.078c0.305,0.695,0.93,1.156,1.628,1.277
				c3.788,9.229,9.104,22.273,9.104,22.273S45.183,56.995,44.45,54.895z"/>
		</g>
	</g>
</g>
<g>
</g>
<g>
</g>
<g>
</g>
<g>
</g>
<g>
</g>
<g>
</g>
<g>
</g>
<g>
</g>
<g>
</g>
<g>
</g>
<g>
</g>
<g>
</g>
<g>
</g>
<g>
</g>
<g>
</g>
</svg>
