<?xml version="1.0" encoding="iso-8859-1"?>
<!-- Generator: Adobe Illustrator 18.1.1, SVG Export Plug-In . SVG Version: 6.00 Build 0)  -->
<svg version="1.1" id="Capa_1" xmlns="http://www.w3.org/2000/svg" xmlns:xlink="http://www.w3.org/1999/xlink" x="0px" y="0px"
	 viewBox="0 0 55.787 55.787" style="enable-background:new 0 0 55.787 55.787;" xml:space="preserve">
<g>
	<g>
		<g>
			<path style="fill:#010002;" d="M37.24,23.245V0h-3.913v23.245c-3.596,0.536-6.726,2.515-8.774,5.328
				c1.388,0.271,2.704,0.745,3.901,1.409c1.708-1.833,4.135-2.984,6.83-2.984c5.154,0,9.348,4.189,9.348,9.345
				s-4.193,9.349-9.348,9.349c-0.221,0-0.438-0.018-0.654-0.034c-0.438,1.341-1.086,2.579-1.9,3.694
				c0.828,0.16,1.681,0.252,2.555,0.252c7.311,0,13.259-5.949,13.259-13.261C48.542,29.698,43.624,24.196,37.24,23.245z"/>
			<path style="fill:#010002;" d="M22.459,29.427V6.183h-3.913v23.244c-6.385,0.952-11.303,6.455-11.303,13.101
				c0,7.311,5.949,13.259,13.259,13.259c7.311,0,13.259-5.948,13.259-13.259C33.761,35.882,28.843,30.379,22.459,29.427z
				 M20.502,51.873c-5.153,0-9.347-4.193-9.347-9.346c0-5.154,4.194-9.348,9.347-9.348c5.154,0,9.347,4.192,9.347,9.348
				C29.848,47.68,25.656,51.873,20.502,51.873z"/>
		</g>
	</g>
</g>
<g>
</g>
<g>
</g>
<g>
</g>
<g>
</g>
<g>
</g>
<g>
</g>
<g>
</g>
<g>
</g>
<g>
</g>
<g>
</g>
<g>
</g>
<g>
</g>
<g>
</g>
<g>
</g>
<g>
</g>
</svg>
