<?xml version="1.0" encoding="iso-8859-1"?>
<!-- Generator: Adobe Illustrator 18.1.1, SVG Export Plug-In . SVG Version: 6.00 Build 0)  -->
<svg version="1.1" id="Capa_1" xmlns="http://www.w3.org/2000/svg" xmlns:xlink="http://www.w3.org/1999/xlink" x="0px" y="0px"
	 viewBox="0 0 40.003 40.003" style="enable-background:new 0 0 40.003 40.003;" xml:space="preserve">
<g>
	<g>
		<path style="fill:#010002;" d="M38.547,23.56H13.093v-1.426h25.87c0,0,3.148-3.069-1.529-3.979c0,0-5.279-0.473-10.969-2.366
			l-3.775,2.693l-0.838-1.173l2.961-2.11c-0.381-0.142-0.76-0.296-1.139-0.453l-4.389,3.132l-0.837-1.174l3.702-2.64
			c-0.391-0.188-0.774-0.383-1.156-0.586l-4.47,3.188l-0.837-1.173l3.934-2.805c-4.478,0.354-5.234-5.775-6.308-6.916L2.216,5.768
			c-0.23-0.035-0.477-0.031-0.742,0.028C0.829,5.968,0.05,6.58,0,8.578V22.03v0.104v2.981v2.882v6.261h1.459h1.052h21.643h2.508
			h3.988c0.002,0,0.009,0,0.017,0c0.286,0,3.665-0.051,6.009-2.378c1.365-1.353,2.07-3.2,2.139-5.465
			c0.674-0.129,1.188-0.69,1.188-1.4C40.002,24.212,39.35,23.56,38.547,23.56z M11.834,32.892H2.511v-4.893h9.323V32.892z
			 M14.347,32.892v-6.421h9.807v6.421H14.347z M35.719,30.906c-1.976,1.966-5,1.984-5.062,1.984h-3.995v-6.421h10.777
			C37.366,28.324,36.802,29.825,35.719,30.906z"/>
	</g>
</g>
<g>
</g>
<g>
</g>
<g>
</g>
<g>
</g>
<g>
</g>
<g>
</g>
<g>
</g>
<g>
</g>
<g>
</g>
<g>
</g>
<g>
</g>
<g>
</g>
<g>
</g>
<g>
</g>
<g>
</g>
</svg>
