<?xml version="1.0" encoding="iso-8859-1"?>
<!-- Generator: Adobe Illustrator 18.1.1, SVG Export Plug-In . SVG Version: 6.00 Build 0)  -->
<svg version="1.1" id="Capa_1" xmlns="http://www.w3.org/2000/svg" xmlns:xlink="http://www.w3.org/1999/xlink" x="0px" y="0px"
	 viewBox="0 0 50.455 50.455" style="enable-background:new 0 0 50.455 50.455;" xml:space="preserve">
<g>
	<g>
		<path style="fill:#010002;" d="M3.292,20.29l3.174-3.602l1.084,0.955l-3.174,3.602L3.292,20.29z M25.603,8.912
			c2.457,0,4.453-2.002,4.453-4.458C30.056,1.994,28.06,0,25.603,0s-4.454,1.994-4.454,4.454C21.148,6.91,23.145,8.912,25.603,8.912
			z M14.823,30.207l-1.086-0.959l3.177-3.6L18,26.607L14.823,30.207z M32.168,10.35l-0.003,0.021v0.002L32.168,10.35z M36.015,30.4
			l-3.227-3.562l1.07-0.971l3.227,3.562L36.015,30.4z M43.937,16.49l-1.074,0.971l3.225,3.557l1.075-0.969L43.937,16.49z
			 M41.543,18.656l1.333,1.473l-1.848,1.674l-7.752-10.717c-0.278-0.387-0.682-0.621-1.113-0.701l0.002-0.014V10.35H18.51
			l0.016,0.085c-0.355,0.112-0.679,0.328-0.912,0.651L9.74,21.971l-2.043-1.804l1.19-1.349l-1.089-0.953l-3.175,3.599l1.087,0.959
			l1.44-1.637l2.187,1.932c-0.198,0.7,0.038,1.479,0.661,1.929c0.525,0.379,1.185,0.425,1.739,0.188l1.979,1.744l-1.314,1.491
			l1.087,0.955l3.175-3.601l-1.085-0.959l-1.314,1.491l-1.85-1.632c0.021-0.031,0.046-0.053,0.066-0.08l6.81-9.412l0.393,2.254
			L19.67,47.909c0,1.406,1.137,2.544,2.54,2.544c1.399,0,2.538-1.138,2.538-2.544V27.307h1.134v20.627l0.02,0.018
			c0.021,1.38,1.144,2.503,2.523,2.503c1.396,0,2.526-1.14,2.526-2.53l-0.002-30.796l0.46-2.553l6.965,9.63l-1.986,1.802
			l-1.207-1.331l-1.07,0.971l3.225,3.558l1.073-0.971l-1.464-1.613l2.056-1.86c0.581,0.318,1.313,0.303,1.894-0.114
			c0.688-0.496,0.907-1.389,0.592-2.135l1.953-1.769l1.334,1.474l1.069-0.973l-3.223-3.56L41.543,18.656z M30.95,16.096v-0.158
			l0.035-0.01L30.95,16.096z"/>
	</g>
</g>
<g>
</g>
<g>
</g>
<g>
</g>
<g>
</g>
<g>
</g>
<g>
</g>
<g>
</g>
<g>
</g>
<g>
</g>
<g>
</g>
<g>
</g>
<g>
</g>
<g>
</g>
<g>
</g>
<g>
</g>
</svg>
