<?xml version="1.0" encoding="iso-8859-1"?>
<!-- Generator: Adobe Illustrator 18.1.1, SVG Export Plug-In . SVG Version: 6.00 Build 0)  -->
<svg version="1.1" id="Capa_1" xmlns="http://www.w3.org/2000/svg" xmlns:xlink="http://www.w3.org/1999/xlink" x="0px" y="0px"
	 viewBox="0 0 40.228 40.228" style="enable-background:new 0 0 40.228 40.228;" xml:space="preserve">
<g>
	<g>
		<g>
			<path style="fill:#010002;" d="M20.117,0.001C9.002,0.001,0,9.006,0,20.116C0,31.22,9.002,40.227,20.117,40.227
				c11.105,0,20.111-9.008,20.111-20.111C40.229,9.006,31.225,0.001,20.117,0.001z M20.111,35.349
				c-7.018,0-12.705-5.688-12.705-12.707S13.094,9.934,20.111,9.934s12.709,5.69,12.709,12.708
				C32.82,29.661,27.129,35.349,20.111,35.349z"/>
			<path style="fill:#010002;" d="M22.628,22.137v-0.083c2.278-1.055,3.076-2.761,3.076-4.327c0-2.334-1.821-4.553-5.41-4.553
				c-3.268,0-5.747,1.993-5.747,4.924c0,1.592,0.885,3.187,2.959,4.155l0.031,0.083c-2.279,0.968-3.673,2.647-3.673,4.981
				c0,2.703,2.332,4.979,6.205,4.979c3.527,0,6.287-2.134,6.287-5.378C26.355,24.7,24.934,23.046,22.628,22.137z M16.938,17.926
				c0-1.593,1.138-2.959,3.215-2.959c2.248,0,3.131,1.536,3.131,3.016c0,1.678-1.224,2.817-2.82,3.357
				C18.334,20.771,16.908,19.777,16.938,17.926z M20.128,30.478c-2.364,0-3.787-1.65-3.701-3.5c0-1.766,1.163-3.219,3.329-3.843
				c2.504,0.712,4.068,1.82,4.068,4.041C23.824,29.082,22.373,30.478,20.128,30.478z"/>
		</g>
	</g>
</g>
<g>
</g>
<g>
</g>
<g>
</g>
<g>
</g>
<g>
</g>
<g>
</g>
<g>
</g>
<g>
</g>
<g>
</g>
<g>
</g>
<g>
</g>
<g>
</g>
<g>
</g>
<g>
</g>
<g>
</g>
</svg>
