<?xml version="1.0" encoding="iso-8859-1"?>
<!-- Generator: Adobe Illustrator 18.1.1, SVG Export Plug-In . SVG Version: 6.00 Build 0)  -->
<svg version="1.1" id="Capa_1" xmlns="http://www.w3.org/2000/svg" xmlns:xlink="http://www.w3.org/1999/xlink" x="0px" y="0px"
	 viewBox="0 0 35.158 35.158" style="enable-background:new 0 0 35.158 35.158;" xml:space="preserve">
<g>
	<g>
		<path style="fill:#010002;" d="M15.225,17.581c0,1.896-1.543,3.44-3.442,3.44c-1.893,0-3.438-1.545-3.438-3.44
			c0-1.898,1.545-3.438,3.438-3.438C13.683,14.143,15.225,15.683,15.225,17.581z M35.158,10.381l-13.933,4.258
			c0.289,0.926,0.443,1.916,0.443,2.94c0,5.498-4.458,9.955-9.955,9.955c-4.624,0-8.499-3.157-9.622-7.429
			C0.904,19.88,0,18.835,0,17.58c0-1.257,0.904-2.3,2.093-2.526c1.123-4.272,4.998-7.428,9.621-7.428h1.516v0.378h5.228V7.625
			h16.699v2.756H35.158z M1.762,17.579c0-0.45,0.039-0.888,0.094-1.321c-0.469,0.258-0.793,0.75-0.793,1.321
			c0,0.574,0.324,1.066,0.793,1.32C1.801,18.467,1.762,18.027,1.762,17.579z M16.289,17.579c0-2.484-2.022-4.504-4.506-4.504
			c-2.482,0-4.502,2.02-4.502,4.504c0,2.482,2.02,4.504,4.502,4.504C14.268,22.084,16.29,20.064,16.289,17.579z"/>
	</g>
</g>
<g>
</g>
<g>
</g>
<g>
</g>
<g>
</g>
<g>
</g>
<g>
</g>
<g>
</g>
<g>
</g>
<g>
</g>
<g>
</g>
<g>
</g>
<g>
</g>
<g>
</g>
<g>
</g>
<g>
</g>
</svg>
