<?xml version="1.0" encoding="iso-8859-1"?>
<!-- Generator: Adobe Illustrator 18.1.1, SVG Export Plug-In . SVG Version: 6.00 Build 0)  -->
<svg version="1.1" id="Capa_1" xmlns="http://www.w3.org/2000/svg" xmlns:xlink="http://www.w3.org/1999/xlink" x="0px" y="0px"
	 viewBox="0 0 43.027 43.027" style="enable-background:new 0 0 43.027 43.027;" xml:space="preserve">
<g>
	<g>
		<g>
			<g>
				<path style="fill:#010002;" d="M21.428,8.179c-7.353,0-13.335,5.981-13.335,13.332c0,7.354,5.982,13.337,13.334,13.337
					c7.354,0,13.335-5.981,13.335-13.337C34.762,14.16,28.781,8.179,21.428,8.179z M21.428,33.691
					c-6.715,0-12.174-5.466-12.174-12.18c0-6.71,5.459-12.175,12.174-12.175c6.714,0,12.173,5.465,12.173,12.175
					C33.602,28.225,28.143,33.691,21.428,33.691z"/>
				<path style="fill:#010002;" d="M21.428,10.192c-6.251,0-11.321,5.069-11.321,11.319c0,6.255,5.07,11.32,11.321,11.32
					s11.321-5.065,11.321-11.32C32.749,15.261,27.68,10.192,21.428,10.192z M21.428,25.609c-2.265,0-4.096-1.834-4.096-4.098
					c0-2.26,1.832-4.094,4.096-4.094c2.261,0,4.093,1.834,4.093,4.094C25.521,23.775,23.688,25.609,21.428,25.609z"/>
			</g>
			<g>
				<g>
					<g>
						<path style="fill:#010002;" d="M5.903,9.609l-0.337,6.357H4.107L3.982,9.477H2.97l-0.157,6.489H1.569L1.054,9.609H0v6.578
							h0.009c0.066,2.1,1.103,2.304,2.506,2.9H2.489v4.396l0,0v9.529c1.204,1.205,2.134,0,2.134,0l0.003-9.705H4.624v-4.219
							c0,0,2.3-0.803,2.367-2.902h0.008L6.997,9.608H5.903V9.609z"/>
					</g>
				</g>
				<g>
					<g>
						<path style="fill:#010002;" d="M40.12,9.168h-1.488h-1.491v24.688h2.979V20.809h2.58C44.186,14.321,40.12,9.168,40.12,9.168z"
							/>
					</g>
				</g>
			</g>
		</g>
	</g>
</g>
<g>
</g>
<g>
</g>
<g>
</g>
<g>
</g>
<g>
</g>
<g>
</g>
<g>
</g>
<g>
</g>
<g>
</g>
<g>
</g>
<g>
</g>
<g>
</g>
<g>
</g>
<g>
</g>
<g>
</g>
</svg>
