<?xml version="1.0" encoding="iso-8859-1"?>
<!-- Generator: Adobe Illustrator 18.1.1, SVG Export Plug-In . SVG Version: 6.00 Build 0)  -->
<svg version="1.1" id="Capa_1" xmlns="http://www.w3.org/2000/svg" xmlns:xlink="http://www.w3.org/1999/xlink" x="0px" y="0px"
	 viewBox="0 0 33.801 33.801" style="enable-background:new 0 0 33.801 33.801;" xml:space="preserve">
<g>
	<g>
		<path style="fill:#010002;" d="M31.994,1.654c0,0-11.161-6.099-23.872,6.615C-4.709,21.101,1.504,32.146,1.504,32.146
			s11.16,6.1,23.875-6.615C39.016,11.896,31.994,1.654,31.994,1.654z M21.522,13.277l2.479,2.472l-1.033,1.036l-2.478-2.473
			l-1.327,1.33l2.469,2.472l-1.033,1.038l-2.475-2.474l-1.433,1.431l2.364,2.358l-1.039,1.036l-2.357-2.36l-1.497,1.496l2.358,2.358
			l-1.035,1.036l-2.362-2.358L3.006,31.8l-1.04-1.036l10.126-10.125l-2.82-2.819l1.039-1.035l2.812,2.818l1.5-1.495l-2.819-2.821
			l1.035-1.034l2.82,2.818l1.428-1.43l-2.7-2.706l1.034-1.034l2.704,2.704l1.327-1.33l-2.7-2.705l1.035-1.036l2.704,2.704
			L30.618,2.116l1.035,1.034L21.522,13.277z"/>
	</g>
</g>
<g>
</g>
<g>
</g>
<g>
</g>
<g>
</g>
<g>
</g>
<g>
</g>
<g>
</g>
<g>
</g>
<g>
</g>
<g>
</g>
<g>
</g>
<g>
</g>
<g>
</g>
<g>
</g>
<g>
</g>
</svg>
