<?xml version="1.0" encoding="iso-8859-1"?>
<!-- Generator: Adobe Illustrator 18.1.1, SVG Export Plug-In . SVG Version: 6.00 Build 0)  -->
<svg version="1.1" id="Capa_1" xmlns="http://www.w3.org/2000/svg" xmlns:xlink="http://www.w3.org/1999/xlink" x="0px" y="0px"
	 viewBox="0 0 43.926 43.926" style="enable-background:new 0 0 43.926 43.926;" xml:space="preserve">
<g>
	<g>
		<path style="fill:#010002;" d="M43.016,0v29.502h-2.668V2.669H3.579v26.833H0.911V0H43.016z M27.166,25.85
			c0,3.951-3.2,7.152-7.15,7.152c-3.952,0-7.152-3.201-7.152-7.152c0-3.948,3.2-7.151,7.152-7.151
			C23.965,18.698,27.166,21.902,27.166,25.85z M20.894,27.59c0.164,0,0.294,0,0.367,0c0.026,0,0.045,0,0.055,0
			c0.042-0.129,0.709-2.178,0.812-2.492c0.001-0.004,0.003-0.008,0.004-0.012c0.003-0.01,0.005-0.021,0.008-0.025
			c-0.102-0.069-1.488-1.053-1.973-1.395c-0.085-0.059-0.144-0.1-0.159-0.111c-0.018,0.012-0.075,0.053-0.159,0.111
			c-0.484,0.342-1.872,1.324-1.973,1.395c0.002,0.004,0.006,0.015,0.009,0.025c0.003,0.004,0.003,0.008,0.005,0.012
			c0.103,0.314,0.77,2.363,0.811,2.492C18.809,27.59,20.178,27.59,20.894,27.59z M18.575,27.805l-0.965,1.422l0.163,0.26
			l1.193-1.682H18.575z M20.007,23.293l0.159,0.113v-1.949l-0.159,0.062l-0.159-0.062v1.949L20.007,23.293z M21.019,27.805
			l1.193,1.697l0.195-0.275l0.011-0.002l-1.009-1.42L21.019,27.805L21.019,27.805z M24.218,24.764l-0.205-0.252l-1.63,0.492
			l-0.122,0.375L24.218,24.764z M22.292,20.63l-0.429,0.168c0.909,0.345,1.698,0.935,2.292,1.686l0.031-0.459
			C23.662,21.437,23.018,20.959,22.292,20.63z M17.9,20.47c0.015,0.007,0.042,0.017,0.077,0.031
			c0.099,0.038,0.264,0.103,0.462,0.179c0.471,0.183,1.112,0.433,1.41,0.548c0.09,0.036,0.148,0.058,0.159,0.063
			c0.013-0.004,0.07-0.027,0.159-0.063c0.292-0.111,0.917-0.356,1.386-0.538c0.188-0.074,0.352-0.137,0.456-0.178
			c0.047-0.019,0.084-0.033,0.104-0.04c-0.059-0.104-0.311-0.562-0.521-0.94c-0.08-0.147-0.154-0.277-0.208-0.377
			c-0.454-0.095-0.926-0.148-1.407-0.148c-0.483,0-0.954,0.052-1.407,0.149c-0.051,0.099-0.117,0.228-0.189,0.371
			C18.187,19.909,17.952,20.367,17.9,20.47z M15.826,21.963l0.032,0.451c0.593-0.728,1.373-1.292,2.266-1.626l-0.431-0.169
			C16.982,20.937,16.346,21.394,15.826,21.963z M15.818,24.743l1.938,0.637l-0.122-0.375l-1.637-0.508L15.818,24.743z
			 M14.376,26.213c0.036-0.041,0.145-0.18,0.287-0.357c0.283-0.356,0.702-0.883,0.94-1.184c0.103-0.129,0.174-0.215,0.183-0.229
			c0-0.006-0.001-0.023-0.003-0.049c-0.015-0.224-0.079-1.14-0.121-1.726c-0.016-0.238-0.028-0.421-0.033-0.481
			c0-0.001,0-0.001,0-0.003c-0.117,0.02-0.675,0.116-1.126,0.194c-0.157,0.027-0.304,0.051-0.412,0.07
			c-0.455,0.804-0.751,1.708-0.844,2.671c0.078,0.075,0.184,0.176,0.299,0.289c0.312,0.301,0.701,0.676,0.813,0.784
			C14.364,26.202,14.372,26.209,14.376,26.213z M15.092,28.568l0.425,0.091c-0.474-0.726-0.772-1.572-0.84-2.482l-0.281,0.354
			l-0.002-0.005C14.493,27.275,14.726,27.941,15.092,28.568z M18.683,31.323c-0.01-0.017-0.028-0.041-0.05-0.078
			c-0.056-0.088-0.147-0.231-0.256-0.402c-0.242-0.387-0.57-0.905-0.76-1.2c-0.081-0.129-0.136-0.218-0.144-0.23
			c-0.005-0.002-0.017-0.002-0.035-0.01c-0.195-0.053-1.161-0.314-1.735-0.469c-0.207-0.056-0.361-0.099-0.414-0.113
			c-0.003,0.014-0.006,0.037-0.01,0.063c-0.03,0.197-0.11,0.697-0.175,1.098c-0.026,0.158-0.05,0.302-0.066,0.404
			c0.646,0.689,1.432,1.246,2.312,1.619c0.106-0.051,0.238-0.121,0.379-0.193C18.123,31.607,18.581,31.375,18.683,31.323z
			 M21.098,31.295l0.244-0.387c-0.435,0.115-0.893,0.178-1.364,0.178c-0.446,0-0.879-0.053-1.292-0.156l0.239,0.377
			c0.342,0.066,0.692,0.103,1.053,0.103C20.361,31.409,20.736,31.37,21.098,31.295z M24.998,30.299
			c-0.021-0.113-0.046-0.252-0.073-0.402c-0.078-0.444-0.176-0.965-0.195-1.078c-0.002,0-0.01,0.002-0.012,0.005
			c-0.068,0.018-0.25,0.065-0.479,0.127c-0.634,0.174-1.642,0.446-1.695,0.461c-0.027,0.045-0.538,0.85-0.888,1.405
			c-0.109,0.17-0.201,0.316-0.26,0.412c-0.027,0.043-0.049,0.074-0.061,0.095c0.1,0.051,0.544,0.271,0.939,0.469
			c0.139,0.067,0.271,0.135,0.381,0.188C23.551,31.592,24.35,31.016,24.998,30.299z M25.571,26.467l-0.286-0.359
			c-0.06,0.943-0.367,1.826-0.856,2.572l0.447-0.121C25.236,27.926,25.479,27.221,25.571,26.467z M25.447,22.367
			c-0.437-0.075-0.946-0.163-1.058-0.182c-0.002,0.014-0.006,0.041-0.006,0.074c-0.008,0.1-0.02,0.277-0.033,0.486
			c-0.041,0.586-0.103,1.437-0.116,1.647c0,0.025-0.003,0.043-0.003,0.049c0.011,0.015,0.08,0.101,0.181,0.229
			c0.224,0.279,0.604,0.756,0.886,1.109c0.131,0.165,0.242,0.307,0.303,0.381c0.019,0.022,0.033,0.039,0.041,0.051
			c0.082-0.078,0.457-0.438,0.773-0.746c0.112-0.108,0.215-0.209,0.301-0.289c-0.089-0.987-0.388-1.916-0.854-2.738
			C25.745,22.42,25.6,22.396,25.447,22.367z M16.592,32.264l-8.007,6.229l0.546,0.702l8.007-6.229L16.592,32.264z M14.447,43.325
			l0.818,0.352l4.014-9.312l-0.818-0.354L14.447,43.325z M20.166,33.877l1.356,10.049l0.881-0.117l-1.356-10.051L20.166,33.877z"/>
	</g>
</g>
<g>
</g>
<g>
</g>
<g>
</g>
<g>
</g>
<g>
</g>
<g>
</g>
<g>
</g>
<g>
</g>
<g>
</g>
<g>
</g>
<g>
</g>
<g>
</g>
<g>
</g>
<g>
</g>
<g>
</g>
</svg>
