<?xml version="1.0" encoding="iso-8859-1"?>
<!-- Generator: Adobe Illustrator 18.1.1, SVG Export Plug-In . SVG Version: 6.00 Build 0)  -->
<svg version="1.1" id="Capa_1" xmlns="http://www.w3.org/2000/svg" xmlns:xlink="http://www.w3.org/1999/xlink" x="0px" y="0px"
	 viewBox="0 0 52.073 52.073" style="enable-background:new 0 0 52.073 52.073;" xml:space="preserve">
<g>
	<g>
		<g>
			<path style="fill:#010002;" d="M17.751,47.984c0.173,0.474,0.561,0.837,1.044,0.984c0.483,0.146,1.009,0.059,1.417-0.239
				l3.557-2.574l2.988,3.221c0.31,0.333,0.738,0.519,1.185,0.519c0.053,0,0.105-0.006,0.158-0.008
				c0.502-0.051,0.955-0.33,1.219-0.764l2.01-3.268H16.962L17.751,47.984z"/>
			<path style="fill:#010002;" d="M2.666,29.601l3.741,2.303l-1.832,3.994c-0.21,0.458-0.195,0.989,0.043,1.436
				c0.029,0.056,0.07,0.101,0.106,0.152h4.581V33.91h0.696c-1.169-2.379-1.843-5.043-1.843-7.872c0-9.89,8.016-17.906,17.906-17.906
				s17.907,8.017,17.907,17.906c0,2.829-0.674,5.493-1.842,7.872h0.799v3.576h1.11l-0.458-1.918l4.119-1.529
				c0.473-0.175,0.837-0.561,0.984-1.045c0.146-0.481,0.058-1.007-0.238-1.417L45.87,28.02l3.221-2.986
				c0.372-0.345,0.56-0.842,0.511-1.345c-0.051-0.502-0.332-0.954-0.763-1.217l-3.743-2.305l1.834-3.989
				c0.211-0.459,0.195-0.99-0.043-1.438c-0.238-0.445-0.673-0.755-1.171-0.835l-4.338-0.693l0.166-4.389
				c0.019-0.506-0.198-0.993-0.589-1.313c-0.391-0.322-0.908-0.438-1.4-0.322l-4.273,1.021l-1.527-4.117
				c-0.177-0.476-0.564-0.838-1.045-0.986c-0.484-0.146-1.008-0.059-1.418,0.236l-3.559,2.575l-2.988-3.221
				c-0.344-0.371-0.838-0.56-1.343-0.511c-0.502,0.05-0.954,0.332-1.218,0.763L19.882,6.69L15.89,4.858
				c-0.458-0.21-0.99-0.193-1.435,0.043C14.01,5.14,13.7,5.571,13.619,6.07l-0.692,4.338l-4.39-0.164
				c-0.5-0.025-0.99,0.199-1.311,0.59c-0.319,0.39-0.44,0.906-0.322,1.398l1.019,4.274l-4.119,1.527
				c-0.472,0.176-0.838,0.561-0.984,1.046c-0.146,0.484-0.059,1.006,0.237,1.418l2.574,3.559L2.41,27.039
				c-0.372,0.346-0.558,0.841-0.508,1.346C1.953,28.886,2.234,29.338,2.666,29.601z"/>
			<path style="fill:#010002;" d="M34.289,47.214c0.457,0.21,0.988,0.194,1.436-0.044c0.443-0.236,0.752-0.67,0.832-1.171
				l0.024-0.144H31.33L34.289,47.214z"/>
			<path style="fill:#010002;" d="M40.51,33.908c1.279-2.341,2.006-5.022,2.006-7.874c0-9.087-7.393-16.479-16.479-16.479
				c-9.087,0-16.479,7.392-16.479,16.479c0,2.851,0.728,5.532,2.007,7.874h1.321c-1.386-2.306-2.199-4.994-2.199-7.874
				c0-8.464,6.886-15.35,15.35-15.35s15.35,6.886,15.35,15.35c0,2.88-0.812,5.568-2.197,7.874H40.51z"/>
			<path style="fill:#010002;" d="M52.073,45.856l-2.581-3.672l2.576-3.696H41.8V34.91H10.436v3.578H0.005l2.575,3.696L0,45.856
				h11.685v-1.259h28.704v1.258L52.073,45.856L52.073,45.856z M10.555,44.726H2.173l1.786-2.539l-1.791-2.57h8.268v4.98h0.12
				L10.555,44.726L10.555,44.726z M41.518,44.597H41.8v-4.98h8.104l-1.791,2.57l1.785,2.539h-8.381L41.518,44.597L41.518,44.597z"/>
		</g>
	</g>
</g>
<g>
</g>
<g>
</g>
<g>
</g>
<g>
</g>
<g>
</g>
<g>
</g>
<g>
</g>
<g>
</g>
<g>
</g>
<g>
</g>
<g>
</g>
<g>
</g>
<g>
</g>
<g>
</g>
<g>
</g>
</svg>
