<?xml version="1.0" encoding="iso-8859-1"?>
<!-- Generator: Adobe Illustrator 18.1.1, SVG Export Plug-In . SVG Version: 6.00 Build 0)  -->
<svg version="1.1" id="Capa_1" xmlns="http://www.w3.org/2000/svg" xmlns:xlink="http://www.w3.org/1999/xlink" x="0px" y="0px"
	 viewBox="0 0 45.254 45.254" style="enable-background:new 0 0 45.254 45.254;" xml:space="preserve">
<g>
	<g>
		<path style="fill:#010002;" d="M36.049,16.1h-2.422l-4.67-8.419l-0.042,0.021V7.681H12.673v4.647H26.22l2.094,3.771H9.203
			C4.121,16.1,0,20.22,0,25.306v3.066c0,5.086,4.121,9.201,9.203,9.201H36.05c5.082,0,9.204-4.115,9.204-9.201v-3.066
			C45.253,20.22,41.131,16.1,36.049,16.1z M9.202,20.066h19.109h6.735h1.001c2.592,0,4.736,1.899,5.148,4.377H4.053
			C4.468,21.965,6.61,20.066,9.202,20.066z M36.049,33.611H9.202c-2.354,0-4.324-1.572-4.984-3.715h36.817
			C40.375,32.036,38.401,33.611,36.049,33.611z"/>
	</g>
</g>
<g>
</g>
<g>
</g>
<g>
</g>
<g>
</g>
<g>
</g>
<g>
</g>
<g>
</g>
<g>
</g>
<g>
</g>
<g>
</g>
<g>
</g>
<g>
</g>
<g>
</g>
<g>
</g>
<g>
</g>
</svg>
