<?xml version="1.0" encoding="iso-8859-1"?>
<!-- Generator: Adobe Illustrator 18.1.1, SVG Export Plug-In . SVG Version: 6.00 Build 0)  -->
<svg version="1.1" id="Capa_1" xmlns="http://www.w3.org/2000/svg" xmlns:xlink="http://www.w3.org/1999/xlink" x="0px" y="0px"
	 viewBox="0 0 42.152 42.152" style="enable-background:new 0 0 42.152 42.152;" xml:space="preserve">
<g>
	<g>
		<g>
			<path style="fill:#010002;" d="M21.077,4.86c2.412,0,4.367-1.417,4.367-3.165c0-0.107-0.018-0.209-0.031-0.311h-8.672
				c-0.015,0.102-0.031,0.204-0.031,0.311C16.71,3.444,18.666,4.86,21.077,4.86z"/>
			<polygon style="fill:#010002;" points="10.793,17.153 20.44,24.943 27.128,24.943 10.793,12.416 			"/>
			<path style="fill:#010002;" d="M22.753,9.227c-0.098-0.215-0.23-0.376-0.398-0.484c-0.169-0.11-0.385-0.163-0.65-0.163
				c-0.261,0-0.477,0.053-0.648,0.163c-0.172,0.108-0.308,0.273-0.408,0.493c-0.094,0.206-0.159,0.475-0.194,0.806
				c-0.035,0.332-0.052,0.694-0.052,1.09c0,0.435,0.016,0.797,0.046,1.09c0.031,0.292,0.096,0.555,0.196,0.786
				c0.092,0.217,0.222,0.383,0.391,0.497s0.392,0.17,0.67,0.17c0.263,0,0.48-0.054,0.653-0.163c0.172-0.108,0.307-0.272,0.4-0.492
				c0.098-0.226,0.164-0.492,0.199-0.796c0.034-0.305,0.051-0.672,0.051-1.101c0-0.423-0.018-0.791-0.051-1.103
				C22.92,9.708,22.854,9.444,22.753,9.227z"/>
			<path style="fill:#010002;" d="M26.616,10.325c0.104,0.049,0.251,0.115,0.445,0.196c0.193,0.082,0.382,0.148,0.566,0.201
				c0.274-0.184,0.465-0.375,0.571-0.572c0.106-0.198,0.159-0.426,0.159-0.685c0-0.298-0.113-0.536-0.346-0.713
				c-0.229-0.177-0.521-0.265-0.877-0.265c-0.353,0-0.639,0.083-0.863,0.25s-0.335,0.393-0.335,0.677
				c0,0.201,0.056,0.375,0.169,0.52C26.217,10.08,26.389,10.211,26.616,10.325z"/>
			<path style="fill:#010002;" d="M31.262,0.012V0H25.24c0.437,0.531,0.706,1.143,0.706,1.806c0,1.95-2.181,3.531-4.869,3.531
				s-4.869-1.581-4.869-3.531c0-0.663,0.269-1.275,0.706-1.806h-6.12v0.11l-6.77,6.767l4.459,4.458l2.31-2.311l0.025,2.32
				l17.407,13.598h3.037V8.93l2.406,2.407l4.459-4.458L31.262,0.012z M23.331,13.581c-0.349,0.522-0.892,0.783-1.626,0.783
				c-0.746,0-1.291-0.265-1.635-0.794c-0.344-0.529-0.516-1.342-0.516-2.439c0-1.105,0.174-1.923,0.522-2.45
				s0.892-0.792,1.628-0.792c0.747,0,1.292,0.268,1.635,0.804c0.345,0.536,0.517,1.345,0.517,2.429
				C23.856,12.239,23.681,13.059,23.331,13.581z M28.719,13.841c-0.42,0.357-0.946,0.535-1.582,0.535
				c-0.674,0-1.209-0.174-1.609-0.521c-0.398-0.349-0.6-0.794-0.6-1.337c0-0.345,0.101-0.657,0.301-0.938
				c0.199-0.28,0.482-0.501,0.848-0.667v-0.025c-0.334-0.178-0.582-0.374-0.742-0.584c-0.16-0.212-0.24-0.476-0.24-0.793
				c0-0.468,0.193-0.858,0.576-1.169c0.385-0.312,0.873-0.469,1.467-0.469c0.621,0,1.117,0.149,1.486,0.447
				c0.371,0.298,0.555,0.677,0.555,1.136c0,0.281-0.086,0.558-0.262,0.83c-0.176,0.271-0.434,0.484-0.772,0.636v0.025
				c0.39,0.167,0.688,0.374,0.894,0.619c0.207,0.245,0.311,0.556,0.311,0.935C29.348,13.039,29.139,13.485,28.719,13.841z"/>
			<path style="fill:#010002;" d="M27.656,11.499c-0.13-0.062-0.274-0.118-0.43-0.171c-0.156-0.053-0.363-0.127-0.622-0.221
				c-0.251,0.136-0.452,0.322-0.604,0.555c-0.151,0.234-0.229,0.498-0.229,0.793c0,0.377,0.13,0.688,0.389,0.932
				c0.258,0.245,0.588,0.368,0.985,0.368c0.407,0,0.731-0.104,0.976-0.312c0.243-0.21,0.365-0.496,0.365-0.862
				c0-0.256-0.057-0.461-0.17-0.615C28.206,11.81,27.984,11.655,27.656,11.499z"/>
			<polygon style="fill:#010002;" points="10.793,24.943 19.344,24.943 10.793,18.249 			"/>
			<rect x="10.807" y="25.5" style="fill:#010002;" width="20.539" height="2.962"/>
			<polygon style="fill:#010002;" points="21.077,28.98 20.915,28.98 10.807,28.98 9.095,42.152 19.364,42.152 20.999,37.331 
				22.788,42.152 33.057,42.152 31.346,28.98 			"/>
		</g>
	</g>
</g>
<g>
</g>
<g>
</g>
<g>
</g>
<g>
</g>
<g>
</g>
<g>
</g>
<g>
</g>
<g>
</g>
<g>
</g>
<g>
</g>
<g>
</g>
<g>
</g>
<g>
</g>
<g>
</g>
<g>
</g>
</svg>
