<?xml version="1.0" encoding="iso-8859-1"?>
<!-- Generator: Adobe Illustrator 18.1.1, SVG Export Plug-In . SVG Version: 6.00 Build 0)  -->
<svg version="1.1" id="Capa_1" xmlns="http://www.w3.org/2000/svg" xmlns:xlink="http://www.w3.org/1999/xlink" x="0px" y="0px"
	 viewBox="0 0 49.795 49.795" style="enable-background:new 0 0 49.795 49.795;" xml:space="preserve">
<g>
	<g>
		<g>
			<path style="fill:#010002;" d="M21.166,25.135L19.95,7.988c0-0.406-0.153-0.692-0.058-1.068l0.089-1.811V5l-0.116-0.002
				c-0.729-0.021-1.46,0.012-2.187,0.018L15.49,5.05v0.122c0.73,0.488,1.461,0.699,2.188,0.869c0.365,0.048,0.727,0.134,1.092,0.136
				c0.055,0.004,0.109-0.004,0.162,0c0.04,0.198,0.076,0.398,0.133,0.597c0.003,0.014,0.011,0.031,0.013,0.044H10.76l-0.027-0.044
				C10.291,7.079,0,14.484,0,35.337h6.083c0-9.761,2.447-15.906,4.664-19.475v17.12l-1.136,8.375c0,0,5.933,3.154,13.331,3.447
				V29.449C21.667,28.685,21.166,27.052,21.166,25.135z M17.859,35.623l-6.099-1.042l0.071-0.41l6.097,1.04L17.859,35.623z"/>
			<path style="fill:#010002;" d="M39.063,6.773l-0.026,0.044h-8.746c0.004-0.013,0.01-0.03,0.015-0.044
				c0.053-0.198,0.09-0.398,0.133-0.597c0.051-0.004,0.107,0.004,0.158,0c0.365-0.002,0.73-0.088,1.096-0.136
				c0.728-0.17,1.457-0.381,2.185-0.869V5.05l-2.185-0.034c-0.73-0.006-1.461-0.038-2.188-0.018L29.386,5l0.004,0.109l0.028,1.708
				H29.4c0.007,0.024,0.009,0.052,0.017,0.077l0.114,1.542l-1.186,16.698c0,1.766-0.429,3.293-1.492,4.121v15.536
				c3.693-0.176,9.223-0.825,13.625-2.298l-1.379-8.884v-17.66c2.198,3.581,4.613,9.7,4.613,19.389h6.083
				C49.796,14.484,39.506,7.079,39.063,6.773z M31.42,35.623l-0.07-0.412l6.1-1.04l0.07,0.41L31.42,35.623z"/>
			<rect x="23.388" y="19.704" style="fill:#010002;" width="3.02" height="1.823"/>
			<rect x="23.388" y="23.049" style="fill:#010002;" width="3.02" height="1.824"/>
			<polygon style="fill:#010002;" points="24.524,7.744 25.271,7.744 25.271,11.365 26.408,11.365 26.408,9.542 26.408,6.198 
				23.388,6.198 23.388,9.542 23.388,11.365 24.524,11.365 			"/>
			<rect x="23.388" y="12.732" style="fill:#010002;" width="3.02" height="1.827"/>
			<rect x="23.388" y="16.383" style="fill:#010002;" width="3.02" height="1.826"/>
			<path style="fill:#010002;" d="M26.408,28.065v-1.824h-3.02v1.824h-0.446v1.385c0.378,0.228,0.819,0.382,1.338,0.438h0.951
				c0.656-0.072,1.191-0.298,1.623-0.634v-1.189H26.408z"/>
		</g>
	</g>
</g>
<g>
</g>
<g>
</g>
<g>
</g>
<g>
</g>
<g>
</g>
<g>
</g>
<g>
</g>
<g>
</g>
<g>
</g>
<g>
</g>
<g>
</g>
<g>
</g>
<g>
</g>
<g>
</g>
<g>
</g>
</svg>
