<?xml version="1.0" encoding="iso-8859-1"?>
<!-- Generator: Adobe Illustrator 18.1.1, SVG Export Plug-In . SVG Version: 6.00 Build 0)  -->
<svg version="1.1" id="Capa_1" xmlns="http://www.w3.org/2000/svg" xmlns:xlink="http://www.w3.org/1999/xlink" x="0px" y="0px"
	 viewBox="0 0 51.301 51.301" style="enable-background:new 0 0 51.301 51.301;" xml:space="preserve">
<g>
	<g>
		<g>
			<rect x="7.813" y="2.896" style="fill:#010002;" width="3.653" height="48.405"/>
			<rect x="12.289" y="7.483" style="fill:#010002;" width="5.182" height="4.969"/>
			<rect x="21.809" y="7.483" style="fill:#010002;" width="5.669" height="4.969"/>
			<path style="fill:#010002;" d="M27.252,3.145C25.709,0.931,23.778,0.067,21.809,0v3.145H27.252z"/>
			<path style="fill:#010002;" d="M17.471,0.879c-1.693,0.679-3.162,1.6-4.097,2.266h4.097L17.471,0.879L17.471,0.879z"/>
			<path style="fill:#010002;" d="M17.471,19.072V16.79h-5.182v3.791h1.752C14.943,20.067,16.127,19.49,17.471,19.072z"/>
			<rect x="31.815" y="16.79" style="fill:#010002;" width="4.946" height="3.791"/>
			<rect x="41.1" y="16.79" style="fill:#010002;" width="2.25" height="3.791"/>
			<path style="fill:#010002;" d="M27.478,16.79h-5.669v1.777c1.557,0.156,3.123,0.73,4.546,2.014h1.124L27.478,16.79L27.478,16.79z
				"/>
			<rect x="41.1" y="7.483" style="fill:#010002;" width="2.25" height="4.969"/>
			<path style="fill:#010002;" d="M31.815,7.551v4.901h4.946V7.54C35.149,7.997,33.432,8.114,31.815,7.551z"/>
			<path style="fill:#010002;" d="M31.815,7.483h-0.191c0.063,0.021,0.127,0.045,0.191,0.067V7.483z"/>
			<path style="fill:#010002;" d="M36.961,7.483h-0.2V7.54C36.831,7.521,36.896,7.502,36.961,7.483z"/>
			<path style="fill:#010002;" d="M27.478,3.145h-0.226c0.076,0.106,0.151,0.214,0.226,0.33V3.145z"/>
			<path style="fill:#010002;" d="M13.374,3.145h-1.908v4.339h0.823V3.971C12.289,3.971,12.695,3.625,13.374,3.145z"/>
			<rect x="17.471" y="3.145" style="fill:#010002;" width="4.338" height="4.339"/>
			<path style="fill:#010002;" d="M27.815,3.971c-0.105-0.189-0.229-0.325-0.337-0.496v4.009h4.146
				C30.211,6.938,28.889,5.877,27.815,3.971z"/>
			<path style="fill:#010002;" d="M36.961,7.483H41.1V5.566C39.979,6.263,38.536,7.01,36.961,7.483z"/>
			<rect x="43.35" y="12.452" style="fill:#010002;" width="0.138" height="4.338"/>
			<rect x="11.466" y="12.452" style="fill:#010002;" width="0.823" height="4.338"/>
			<rect x="17.471" y="12.452" style="fill:#010002;" width="4.338" height="4.338"/>
			<rect x="27.478" y="12.452" style="fill:#010002;" width="4.337" height="4.338"/>
			<rect x="36.762" y="12.452" style="fill:#010002;" width="4.338" height="4.338"/>
			<path style="fill:#010002;" d="M31.815,24.601v0.318h4.946v-0.312C35.176,24.953,33.471,25.037,31.815,24.601z"/>
			<path style="fill:#010002;" d="M27.478,20.581v1.182c1.29,1.575,2.789,2.432,4.337,2.838v-4.02L27.478,20.581L27.478,20.581z"/>
			<path style="fill:#010002;" d="M36.762,24.606c1.664-0.366,3.178-0.994,4.338-1.581v-2.444h-4.338V24.606z"/>
		</g>
	</g>
</g>
<g>
</g>
<g>
</g>
<g>
</g>
<g>
</g>
<g>
</g>
<g>
</g>
<g>
</g>
<g>
</g>
<g>
</g>
<g>
</g>
<g>
</g>
<g>
</g>
<g>
</g>
<g>
</g>
<g>
</g>
</svg>
