<?xml version="1.0" encoding="iso-8859-1"?>
<!-- Generator: Adobe Illustrator 18.1.1, SVG Export Plug-In . SVG Version: 6.00 Build 0)  -->
<svg version="1.1" id="Capa_1" xmlns="http://www.w3.org/2000/svg" xmlns:xlink="http://www.w3.org/1999/xlink" x="0px" y="0px"
	 viewBox="0 0 45.313 45.313" style="enable-background:new 0 0 45.313 45.313;" xml:space="preserve">
<g>
	<g>
		<g>
			<g>
				<path style="fill:#010002;" d="M21.762,24.861c0-0.336,0.192-0.615,0.47-0.771c-6.429-0.556-11.493-5.956-11.493-12.523
					c0-0.953,0.116-1.873,0.315-2.764c-4.32,2.105-7.308,6.523-7.308,11.655v11.885c0,7.161,5.807,12.969,12.968,12.969h5.212
					c-0.095-0.145-0.164-0.305-0.164-0.485L21.762,24.861L21.762,24.861z"/>
			</g>
			<g>
				<path style="fill:#010002;" d="M35.734,9.634c0.101,0.633,0.166,1.275,0.166,1.935c0,6.934-5.646,12.578-12.58,12.578
					c-0.057,0-0.109-0.006-0.166-0.006c0.234,0.16,0.398,0.418,0.398,0.721v19.966c0,0.182-0.07,0.342-0.162,0.485h5.211
					c7.16,0,12.965-5.808,12.965-12.969V20.459C41.566,15.932,39.249,11.956,35.734,9.634z"/>
			</g>
			<g>
				<path style="fill:#010002;" d="M23.32,21.892c6.042,0,10.943-4.902,10.943-10.948C34.263,4.902,29.362,0,23.32,0
					c-6.046,0-10.947,4.902-10.947,10.943C12.374,16.989,17.275,21.892,23.32,21.892z M15.749,10.479h-1.56
					c0.235-4.681,3.983-8.431,8.668-8.663c0,0.006-0.004,0.012-0.004,0.02v1.703c0,0.257,0.209,0.465,0.467,0.465
					c0.255,0,0.461-0.208,0.461-0.465V1.836c0-0.008,0-0.014,0-0.02c4.684,0.232,8.43,3.982,8.667,8.663h-1.573
					c-0.256,0-0.464,0.21-0.464,0.464c0,0.26,0.208,0.467,0.464,0.467h1.573c-0.237,4.684-3.981,8.429-8.667,8.666v-1.633
					c0-0.259-0.206-0.468-0.461-0.468c-0.258,0-0.467,0.209-0.467,0.468v1.633c-4.683-0.237-8.429-3.982-8.665-8.666h1.56
					c0.256,0,0.462-0.207,0.462-0.467C16.211,10.689,16.005,10.479,15.749,10.479z"/>
			</g>
			<g>
				<path style="fill:#010002;" d="M23.32,11.935c0.048,0,0.089-0.019,0.135-0.027c0.01,0.009,0.016,0.02,0.023,0.027l3.789,3.289
					l1.021,0.27l-0.507-1.055l-3.606-3.131c0.032-0.091,0.061-0.186,0.061-0.288c0-0.508-0.41-0.916-0.915-0.916
					c-0.507,0-0.916,0.408-0.916,0.916C22.404,11.524,22.814,11.935,23.32,11.935z"/>
			</g>
		</g>
	</g>
</g>
<g>
</g>
<g>
</g>
<g>
</g>
<g>
</g>
<g>
</g>
<g>
</g>
<g>
</g>
<g>
</g>
<g>
</g>
<g>
</g>
<g>
</g>
<g>
</g>
<g>
</g>
<g>
</g>
<g>
</g>
</svg>
