<?xml version="1.0" encoding="iso-8859-1"?>
<!-- Generator: Adobe Illustrator 18.1.1, SVG Export Plug-In . SVG Version: 6.00 Build 0)  -->
<svg version="1.1" id="Capa_1" xmlns="http://www.w3.org/2000/svg" xmlns:xlink="http://www.w3.org/1999/xlink" x="0px" y="0px"
	 viewBox="0 0 45.474 45.474" style="enable-background:new 0 0 45.474 45.474;" xml:space="preserve">
<g>
	<g>
		<path style="fill:#010002;" d="M29.621,19.473c0.063,0.001,0.129,0.006,0.191,0.006c12.293,0,15.662-16.536,15.662-16.536h-8.919
			c0.017-0.26,0.03-0.523,0.03-0.766H8.887c0,0.243,0.016,0.506,0.031,0.766H0c0,0,3.369,16.536,15.663,16.536
			c0.062,0,0.128-0.005,0.192-0.006c0.703,0.776,1.441,1.468,2.215,2.014c-0.543,0.012-0.983,0.448-0.983,0.99
			c0,0.552,0.447,0.997,0.998,0.997H19.4l-3.007,15.789h-0.909v4.033h14.508v-4.033h-0.908l-3.008-15.789h1.313
			c0.552,0,0.998-0.445,0.998-0.997c0-0.542-0.44-0.979-0.983-0.99C28.178,20.942,28.918,20.251,29.621,19.473z M36.363,4.723h6.779
			c-1.263,3.935-4.729,11.994-12.018,12.878C33.82,13.805,35.738,8.714,36.363,4.723z M2.332,4.723h6.78
			c0.624,3.991,2.542,9.082,5.238,12.878C7.062,16.717,3.594,8.658,2.332,4.723z"/>
	</g>
</g>
<g>
</g>
<g>
</g>
<g>
</g>
<g>
</g>
<g>
</g>
<g>
</g>
<g>
</g>
<g>
</g>
<g>
</g>
<g>
</g>
<g>
</g>
<g>
</g>
<g>
</g>
<g>
</g>
<g>
</g>
</svg>
