<?xml version="1.0" encoding="UTF-8" standalone="no"?>
<!DOCTYPE svg PUBLIC "-//W3C//DTD SVG 1.1//EN" "http://www.w3.org/Graphics/SVG/1.1/DTD/svg11.dtd">
<svg width="100%" height="100%" viewBox="0 0 512 512" version="1.1" xmlns="http://www.w3.org/2000/svg" xmlns:xlink="http://www.w3.org/1999/xlink" xml:space="preserve" xmlns:serif="http://www.serif.com/" style="fill-rule:evenodd;clip-rule:evenodd;stroke-linejoin:round;stroke-miterlimit:2;">
    <g>
        <path d="M512,256C512,316.35 490.6,374.94 451.75,421C442.54,431.9 432.38,442.09 421.54,451.28C375.41,490.44 316.62,512 256,512C195.38,512 136.59,490.44 90.46,451.28C79.62,442.09 69.46,431.9 60.26,421C21.4,374.94 0,316.35 0,256C0,187.62 26.63,123.33 74.98,74.98C123.33,26.63 187.62,0 256,0C324.38,0 388.67,26.63 437.02,74.98C485.37,123.33 512,187.62 512,256Z" style="fill:rgb(221,221,221);fill-opacity:0.4;fill-rule:nonzero;"/>
        <path d="M432,400C432,414.53 430.22,428.99 426.71,442.98C425.9,446.21 424.09,449.12 421.54,451.28C375.41,490.44 316.62,512 256,512C195.38,512 136.59,490.44 90.46,451.28C87.91,449.12 86.1,446.21 85.29,442.98C81.78,428.99 80,414.53 80,400C80,353.42 98.02,309.52 130.73,276.37C163.42,243.26 207.02,224.66 253.51,224.01L253.73,224.01L256,224L258.27,224.01L258.49,224.01C304.98,224.66 348.58,243.26 381.27,276.37C413.98,309.52 432,353.42 432,400Z" style="fill:rgb(235,192,172);fill-rule:nonzero;"/>
        <path d="M512,256C512,316.35 490.6,374.94 451.75,421C442.54,431.9 432.38,442.09 421.54,451.28C375.41,490.44 316.62,512 256,512C250.65,512 245.31,511.83 240,511.49C294.9,508.06 347.48,486.98 389.54,451.28C400.38,442.09 410.54,431.9 419.75,421C458.6,374.94 480,316.35 480,256C480,187.62 453.37,123.33 405.02,74.98C360.46,30.42 302.36,4.31 240,0.49C245.31,0.16 250.64,0 256,0C324.38,0 388.67,26.63 437.02,74.98C485.37,123.33 512,187.62 512,256Z" style="fill:rgb(235,192,172);fill-rule:nonzero;"/>
        <path d="M432,400C432,414.53 430.22,428.99 426.71,442.98C425.9,446.21 424.09,449.12 421.54,451.28C375.41,490.44 316.62,512 256,512C250.65,512 245.31,511.83 240,511.49C294.9,508.06 347.48,486.98 389.54,451.28C392.09,449.12 393.9,446.21 394.71,442.98C398.22,428.99 400,414.53 400,400C400,353.42 381.98,309.52 349.27,276.37C319.77,246.49 281.38,228.43 240,224.72C244.47,224.31 248.97,224.07 253.51,224.01L253.73,224.01L256,224L258.27,224.01L258.49,224.01C304.98,224.66 348.58,243.26 381.27,276.37C413.98,309.52 432,353.42 432,400Z" style="fill:rgb(195,145,132);fill-rule:nonzero;"/>
        <circle cx="256" cy="160" r="96" style="fill:rgb(235,192,172);"/>
        <path d="M352,160C352,212.93 308.93,256 256,256C250.55,256 245.2,255.54 240,254.66C285.34,247.02 320,207.48 320,160C320,112.52 285.34,72.98 240,65.34C245.2,64.46 250.55,64 256,64C308.93,64 352,107.07 352,160Z" style="fill:rgb(195,145,132);fill-rule:nonzero;"/>
    </g>
</svg>
