<?xml version="1.0" encoding="iso-8859-1"?>
<!-- Generator: Adobe Illustrator 18.1.1, SVG Export Plug-In . SVG Version: 6.00 Build 0)  -->
<svg version="1.1" id="Capa_1" xmlns="http://www.w3.org/2000/svg" xmlns:xlink="http://www.w3.org/1999/xlink" x="0px" y="0px"
	 viewBox="0 0 223.8 223.8" style="enable-background:new 0 0 223.8 223.8;" xml:space="preserve">
<g>
	<g>
		<path style="fill:#010002;" d="M179.3,93.2c-8,0-15.601,2.1-22.101,5.9L138.1,74.6V57.4l13.9-8.5l-4.4-7.3l-17.9,10.9l0,0l0,0
			v15.2l-54.6,38.5c-0.3-0.3-0.7-0.6-1.1-0.9V77.5h10.9v-10h-32v10H55l10.5,6.2v15.4c-6.3-3.5-13.5-5.4-21.2-5.4
			C19.9,93.7,0,113.6,0,138.001C0,162.4,19.9,182.2,44.2,182.2c24.1,0,43.7-19.3,44.2-43.199L142.6,98.8l5.7,7
			c-8.3,8.1-13.5,19.4-13.5,31.9c0,24.6,19.899,44.5,44.5,44.5s44.5-19.9,44.5-44.5S203.9,93.2,179.3,93.2z M75.9,118.9
			c2.3,3.8,3.9,7.899,4.7,12.399l-1.7,1.201H56.3L75.9,118.9z M44.2,175c-20.4,0-37.1-16.601-37.1-37.101
			c0-20.399,16.6-37.1,37.1-37.1c9.6,0,18.2,3.7,24.8,9.7l-23.9,16.6c-0.3,0-0.7-0.1-1.1-0.1c-6.1,0-11.1,5-11.1,11.1
			s5,11.1,11.1,11.1c4.3,0,7.9-2.4,9.8-5.9h26.9C78.1,161.2,62.8,175,44.2,175z M87,126.6c-1.1-4.2-2.8-8.2-5.1-11.9l47.9-33.3
			l6.399,8.7L87,126.6z M179.3,175.1c-20.7,0-37.5-16.801-37.5-37.5c0-10.301,4.2-19.6,10.899-26.4L170,132.6
			c-0.9,1.6-1.4,3.3-1.4,5.3c0,5.899,4.801,10.7,10.7,10.7s10.7-4.801,10.7-10.7s-4.801-10.7-10.7-10.7h-0.101L161.6,104.6
			c5.301-2.8,11.301-4.5,17.7-4.5c20.7,0,37.5,16.8,37.5,37.5C216.8,158.299,200,175.1,179.3,175.1z"/>
	</g>
</g>
<g>
</g>
<g>
</g>
<g>
</g>
<g>
</g>
<g>
</g>
<g>
</g>
<g>
</g>
<g>
</g>
<g>
</g>
<g>
</g>
<g>
</g>
<g>
</g>
<g>
</g>
<g>
</g>
<g>
</g>
</svg>
