<?xml version="1.0" encoding="iso-8859-1"?>
<!-- Generator: Adobe Illustrator 18.1.1, SVG Export Plug-In . SVG Version: 6.00 Build 0)  -->
<svg version="1.1" id="Capa_1" xmlns="http://www.w3.org/2000/svg" xmlns:xlink="http://www.w3.org/1999/xlink" x="0px" y="0px"
	 viewBox="0 0 44.177 44.177" style="enable-background:new 0 0 44.177 44.177;" xml:space="preserve">
<g>
	<g>
		<path style="fill:#010002;" d="M43.033,27.903v2.543c0.002,0.169-0.441,0.304-0.973,0.304h-1.164l-1.386,1.636l-1.387-1.636
			h-1.424l-1.388,1.636l-1.385-1.636h-2.26l-1.387,1.636l-1.389-1.636H10.48l-1.387,1.636l-1.384-1.636H6.055l-1.386,1.635
			l-1.386-1.635H0.977C0.442,30.749,0,30.614,0,30.446l0.002-2.543c0.002-0.168,0.443-0.304,0.979-0.304h41.078
			C42.589,27.601,43.031,27.733,43.033,27.903z M22.089,19.588h2.292l-4.438,6.592l2.768-0.003l3.117-4.163h2.443l-2.994,4.163
			l2.742,0.003l1.446-2.085l2.134,0.003l-1.41,2.079l12.842,0.004c0,0,3.479-3.391-1.688-4.394c0,0-16.396-1.468-23.813-9.339
			c0,0-2.086-1.913-1.67,0.793c-0.312,0.265-0.735,0.623-1.33,1.127c-3.62,3.071-12.077-1.725-12.077-1.725
			c-0.258-0.04-0.529-0.037-0.822,0.03c-0.712,0.186-1.571,0.865-1.628,3.072v10.436h17.411L22.089,19.588z"/>
	</g>
</g>
<g>
</g>
<g>
</g>
<g>
</g>
<g>
</g>
<g>
</g>
<g>
</g>
<g>
</g>
<g>
</g>
<g>
</g>
<g>
</g>
<g>
</g>
<g>
</g>
<g>
</g>
<g>
</g>
<g>
</g>
</svg>
