<?xml version="1.0" encoding="iso-8859-1"?>
<!-- Generator: Adobe Illustrator 18.1.1, SVG Export Plug-In . SVG Version: 6.00 Build 0)  -->
<svg version="1.1" id="Capa_1" xmlns="http://www.w3.org/2000/svg" xmlns:xlink="http://www.w3.org/1999/xlink" x="0px" y="0px"
	 viewBox="0 0 49.33 49.33" style="enable-background:new 0 0 49.33 49.33;" xml:space="preserve">
<g>
	<g>
		<g>
			<circle style="fill:#010002;" cx="22.304" cy="4.449" r="4.449"/>
			<path style="fill:#010002;" d="M23.195,44.962c-0.043-0.229-0.102-0.473-0.163-0.726l-2.424-8.399l3.892-9.11
				c0,0,2.358,7.039,2.997,8.633c0.635,1.594,6.322,5.938,6.322,5.938c0.527,0.992,1.766,1.361,2.764,0.834
				c1-0.534,1.39-1.764,0.859-2.758l-6.764-5.885l-2.129-7.882l3.514-1.868c0.693-0.371,1.006-1.179,0.781-1.905
				c-0.016-0.042-0.033-0.083-0.051-0.122c-0.021-0.052-0.039-0.106-0.064-0.156c-0.068-0.136-0.166-0.251-0.266-0.357l-5.82-8.409
				c-0.713-2.137-2.212-3.586-3.845-3.471c-1.636,0.115-2.916,1.765-3.323,3.984l-3.517,5.804l-4.06,1.862
				c-0.483,0.413-0.671,0.916-0.167,2.018c0.603,0.698,1.195,1.039,2.338,0.516l3.911-1.741l1.604-3.036l0.547,7.785
				c0,0-4.294,7.681-3.877,9.079c0.42,1.398,2.281,7.631,2.281,7.631c0.217,0.694,0.422,1.269,0.617,1.74H6.938v4.369h35.454v-4.369
				L23.195,44.962L23.195,44.962z M28.831,21.803l-1.229,0.654l-0.193-2.707L28.831,21.803z"/>
		</g>
	</g>
</g>
<g>
</g>
<g>
</g>
<g>
</g>
<g>
</g>
<g>
</g>
<g>
</g>
<g>
</g>
<g>
</g>
<g>
</g>
<g>
</g>
<g>
</g>
<g>
</g>
<g>
</g>
<g>
</g>
<g>
</g>
</svg>
