<?xml version="1.0" encoding="iso-8859-1"?>
<!-- Generator: Adobe Illustrator 18.1.1, SVG Export Plug-In . SVG Version: 6.00 Build 0)  -->
<svg version="1.1" id="Capa_1" xmlns="http://www.w3.org/2000/svg" xmlns:xlink="http://www.w3.org/1999/xlink" x="0px" y="0px"
	 viewBox="0 0 40.334 40.334" style="enable-background:new 0 0 40.334 40.334;" xml:space="preserve">
<g>
	<g>
		<g>
			<g>
				<g>
					<path style="fill:#010002;" d="M20.165,40.334c-6.153,0-11.164-5.01-11.164-11.167C9.002,23.008,14.012,18,20.165,18
						c6.164,0,11.17,5.008,11.17,11.167C31.336,35.324,26.328,40.334,20.165,40.334z M20.165,19.973c-5.066,0-9.19,4.125-9.19,9.194
						s4.124,9.192,9.19,9.192c5.072,0,9.197-4.123,9.197-9.192S25.237,19.973,20.165,19.973z"/>
				</g>
			</g>
			<path style="fill:#010002;" d="M20.165,20.992c-4.512,0-8.173,3.658-8.173,8.175s3.661,8.177,8.173,8.177
				c4.517,0,8.18-3.66,8.18-8.177S24.682,20.992,20.165,20.992z M21.278,35.184h-1.721V24.871l-1.711,1.72v-1.72l1.711-1.719h1.721
				V35.184z"/>
			<g>
				<path style="fill:#010002;" d="M24.686,18.845h-9.038v-5.632h9.038V18.845z M16.87,17.624h6.599v-3.191H16.87V17.624z"/>
			</g>
			<g>
				<path style="fill:#010002;" d="M29.106,0l-8.938,8.938L11.232,0L6.926,4.301l11.329,11.326h3.827L33.408,4.303L29.106,0z
					 M29.106,1.291l3.01,3.012l-8.293,8.293l-3.009-3.013L29.106,1.291z"/>
			</g>
		</g>
	</g>
</g>
<g>
</g>
<g>
</g>
<g>
</g>
<g>
</g>
<g>
</g>
<g>
</g>
<g>
</g>
<g>
</g>
<g>
</g>
<g>
</g>
<g>
</g>
<g>
</g>
<g>
</g>
<g>
</g>
<g>
</g>
</svg>
