<?xml version="1.0" encoding="iso-8859-1"?>
<!-- Generator: Adobe Illustrator 18.1.1, SVG Export Plug-In . SVG Version: 6.00 Build 0)  -->
<svg version="1.1" id="Capa_1" xmlns="http://www.w3.org/2000/svg" xmlns:xlink="http://www.w3.org/1999/xlink" x="0px" y="0px"
	 viewBox="0 0 51.344 51.344" style="enable-background:new 0 0 51.344 51.344;" xml:space="preserve">
<g>
	<g>
		<path style="fill:#010002;" d="M34.516,32.321V10.203c1.252-0.086,3.168-0.39,5.035-1.361c3.135-1.623,6.001,1.392,6.001,1.392
			V1.877c0,0-4.028-3.021-6.235-1.398c-2.205,1.628-6.193,1.398-6.193,1.398v2.317v6.039v2.602
			c-0.281,0.024-0.559,0.118-0.779,0.336l-0.008,0.005l-0.154,0.108l-1.408,0.957v-0.405c-0.262-3.11-3.867-3.062-3.867-3.062H25.35
			l-1.313,2.155l-1.316-2.155h-1.497c-4.066,0.076-3.916,3.062-3.916,3.062l-0.004,6.971h0.004c0,0.015,0,0.035,0,0.057
			c0,0.66,0.534,1.195,1.193,1.195c0.658,0,1.194-0.535,1.194-1.195c0-0.021,0-0.042,0-0.057v-6.448h0.749l-0.008,17.058
			C9.418,33.414,1.17,41.576,1.17,51.344h49.004C50.174,42.677,43.677,35.275,34.516,32.321z M28.38,14.329v2.116
			c0,0.003,0,0.004,0,0.012c0,0.657,0.54,1.196,1.197,1.196c0.196,0,0.368-0.056,0.528-0.142l0.008,0.011l2.068-1.384l0.941-0.632
			v16.403c-1.76-0.467-3.607-0.77-5.516-0.895l-0.004-16.689L28.38,14.329z M23.664,21.562h0.717v9.412
			c-0.241,0.01-0.478,0.028-0.717,0.045V21.562z M21.208,7.483c0-1.558,1.265-2.818,2.818-2.818c1.554,0,2.82,1.261,2.82,2.818
			c0,1.562-1.266,2.822-2.82,2.822S21.208,9.045,21.208,7.483z"/>
	</g>
</g>
<g>
</g>
<g>
</g>
<g>
</g>
<g>
</g>
<g>
</g>
<g>
</g>
<g>
</g>
<g>
</g>
<g>
</g>
<g>
</g>
<g>
</g>
<g>
</g>
<g>
</g>
<g>
</g>
<g>
</g>
</svg>
