<?xml version="1.0" encoding="iso-8859-1"?>
<!-- Generator: Adobe Illustrator 18.1.1, SVG Export Plug-In . SVG Version: 6.00 Build 0)  -->
<svg version="1.1" id="Capa_1" xmlns="http://www.w3.org/2000/svg" xmlns:xlink="http://www.w3.org/1999/xlink" x="0px" y="0px"
	 viewBox="0 0 44.737 44.737" style="enable-background:new 0 0 44.737 44.737;" xml:space="preserve">
<g>
	<g>
		<g>
			<path style="fill:#010002;" d="M39.516,7.396v30.328h0.586c1.267,0,1.834-0.858,1.957-1.311L42.08,5.92
				c0.003-0.078,0.009-0.777-0.512-1.312c-0.243-0.253-0.695-0.554-1.465-0.554H17.17l-0.187,0.03
				c-0.183,0.062-1.791,0.641-1.791,1.95v0.584l23.56,0.012C39.176,6.631,39.516,6.974,39.516,7.396z M17.276,5.225h22.826
				c0.287,0,0.494,0.065,0.623,0.191c0.18,0.183,0.185,0.471,0.185,0.486v30.254c-0.027,0.061-0.097,0.16-0.222,0.246V7.396
				c0-1.068-0.869-1.936-1.935-1.936L16.84,5.451C16.992,5.354,17.151,5.275,17.276,5.225z"/>
			<path style="fill:#010002;" d="M44.734,36.927V3.207c0-1.177-1.133-1.718-1.848-1.852H16.918c-3.466,0-4.378,3.031-4.378,4.634
				v25.296h1.169V5.989c0-0.142,0.038-3.463,3.209-3.463l25.849-0.012c0.01,0.002,0.797,0.176,0.797,0.692v33.758
				c0.006,0.108-0.02,0.436-0.198,0.621c-0.117,0.127-0.304,0.188-0.569,0.188l-3.281,0.004v0.585c0,0.42-0.34,0.762-0.762,0.762
				H21.957v1.172h16.797c0.861,0,1.594-0.566,1.842-1.35l2.204-0.003c0.747,0,1.187-0.307,1.429-0.562
				C44.782,37.789,44.74,36.977,44.734,36.927z"/>
			<path style="fill:#010002;" d="M25.884,30.007c0.298-0.032,0.784-0.086,1.188-0.086c0.416,0,0.525,0.059,0.533,0.063l0.072,0.065
				h0.098c4.711,0,7.313-5.471,7.313-9.235c0.092-1.432-0.303-2.628-1.171-3.553c-0.921-0.985-2.38-1.603-4.071-1.746
				c0.264-0.08,0.521-0.178,0.768-0.296c0.527-0.25,1.013-0.585,1.453-1.015c0.434-0.44,0.834-0.951,1.119-1.708
				c-0.767-0.252-1.416-0.264-2.035-0.195c-0.609,0.074-1.178,0.244-1.701,0.496c-0.524,0.254-1.008,0.59-1.45,1.021
				c-0.425,0.429-0.813,0.935-1.099,1.661c-0.402-0.713-1.049-2.075-1.336-3.879l-0.883,0.138c0.264,1.678,0.815,2.995,1.248,3.829
				c-0.416-0.054-0.834-0.086-1.252-0.086c-2.012,0-3.775,0.649-4.835,1.78c-0.868,0.925-1.263,2.121-1.172,3.536
				c0,3.657,2.389,8.9,6.909,9.234C25.623,30.035,25.736,30.022,25.884,30.007z M27.342,15.645c-0.102,0.019-0.207,0.04-0.311,0.062
				c-0.031-0.051-0.063-0.106-0.098-0.168C27.072,15.582,27.209,15.614,27.342,15.645z M19.205,20.782
				c-0.081-1.275,0.265-2.338,1.028-3.152c0.961-1.023,2.581-1.611,4.447-1.611c0.528,0,1.057,0.048,1.577,0.14
				c0.147,0.244,0.248,0.385,0.263,0.404l0.379-0.274l0.045-0.014c0.701-0.17,1.42-0.256,2.141-0.256
				c1.864,0,3.484,0.588,4.441,1.611c0.768,0.814,1.113,1.877,1.029,3.17c0,3.616-2.545,8.65-6.701,8.714
				c-0.164-0.089-0.414-0.124-0.781-0.124c-0.434,0-0.939,0.054-1.242,0.086c-0.124,0.014-0.214,0.021-0.239,0.021
				C21.479,29.193,19.207,24.162,19.205,20.782z"/>
			<path style="fill:#010002;" d="M29.1,23.276c0.153-0.227,0.284-0.488,0.385-0.789c0.1-0.306,0.177-0.641,0.188-1.08
				c-0.297,0.012-0.521,0.132-0.728,0.279c-0.201,0.15-0.375,0.345-0.528,0.57c-0.153,0.229-0.28,0.49-0.386,0.791
				c-0.098,0.305-0.178,0.641-0.186,1.078c0.295-0.017,0.52-0.135,0.725-0.28C28.771,23.692,28.945,23.501,29.1,23.276z"/>
			<path style="fill:#010002;" d="M26.324,24.253c0.175-0.233,0.238-0.477,0.266-0.721c0.025-0.244,0.003-0.488-0.052-0.736
				c-0.062-0.25-0.161-0.498-0.302-0.752c-0.15-0.251-0.332-0.507-0.629-0.768c-0.18,0.236-0.242,0.48-0.271,0.721
				c-0.023,0.244-0.003,0.488,0.059,0.737c0.06,0.248,0.156,0.496,0.299,0.752C25.843,23.738,26.023,23.991,26.324,24.253z"/>
			<g>
				<path style="fill:#010002;" d="M13.338,40.43c0,0.616,0.406,0.894,0.873,0.894c0.68,0,1.116-0.427,1.264-0.861
					c0.033-0.104,0.042-0.211,0.042-0.297v-0.893C14.497,39.251,13.338,39.43,13.338,40.43z"/>
				<path style="fill:#010002;" d="M0,32.065v11.317h21.566V32.065H0z M6.288,41.898l-2.348-3.52l-0.693,0.787v2.731H2.324v-7.164
					h0.923v3.454H3.28c0.192-0.277,0.382-0.53,0.564-0.766l2.189-2.688H7.18l-2.593,3.04l2.796,4.124L6.288,41.898L6.288,41.898z
					 M10.409,41.259c0.53,0,0.881-0.129,1.146-0.244l0.161,0.701c-0.247,0.119-0.788,0.298-1.478,0.298
					c-1.553,0-2.563-1.052-2.563-2.625c0-1.583,1.085-2.74,2.764-2.74c0.553,0,1.044,0.136,1.299,0.274l-0.212,0.713
					c-0.223-0.118-0.575-0.246-1.086-0.246c-1.177,0-1.816,0.884-1.816,1.947C8.622,40.525,9.387,41.259,10.409,41.259z
					 M15.655,41.898l-0.074-0.648H15.55c-0.288,0.403-0.84,0.766-1.574,0.766c-1.042,0-1.573-0.733-1.573-1.479
					c0-1.24,1.105-1.924,3.093-1.912V38.52c0-0.414-0.116-1.189-1.17-1.182c-0.49,0-0.988,0.138-1.35,0.384l-0.213-0.628
					c0.426-0.266,1.054-0.443,1.702-0.443c1.573,0,1.956,1.071,1.956,2.092v1.924c0,0.446,0.021,0.883,0.075,1.233L15.655,41.898
					L15.655,41.898z M18.864,41.898h-0.935v-7.547h0.935V41.898z"/>
			</g>
		</g>
	</g>
</g>
<g>
</g>
<g>
</g>
<g>
</g>
<g>
</g>
<g>
</g>
<g>
</g>
<g>
</g>
<g>
</g>
<g>
</g>
<g>
</g>
<g>
</g>
<g>
</g>
<g>
</g>
<g>
</g>
<g>
</g>
</svg>
