<?xml version="1.0" encoding="iso-8859-1"?>
<!-- Generator: Adobe Illustrator 18.1.1, SVG Export Plug-In . SVG Version: 6.00 Build 0)  -->
<svg version="1.1" id="Capa_1" xmlns="http://www.w3.org/2000/svg" xmlns:xlink="http://www.w3.org/1999/xlink" x="0px" y="0px"
	 viewBox="0 0 53.774 53.774" style="enable-background:new 0 0 53.774 53.774;" xml:space="preserve">
<g>
	<g>
		<g>
			<path style="fill:#010002;" d="M15.819,5.43c0,2.541-2.06,4.602-4.603,4.602c-2.536,0-4.598-2.061-4.598-4.602
				s2.063-4.601,4.599-4.601C13.76,0.829,15.819,2.889,15.819,5.43z"/>
			<path style="fill:#010002;" d="M26.016,24.571v-0.004l0.01,0.009c0.759,0.76,1.988,0.76,2.751,0c0.759-0.758,0.756-1.986,0-2.738
				c-0.008-0.015-0.012-0.015-0.012-0.015l-7.563-7.561c-2.42-2.509-5.595-2.743-5.595-2.743H6.38
				c-6.609,0.121-6.377,4.972-6.377,4.972L0,27.816h0.012c-0.006,0.027-0.008,0.056-0.008,0.083c0,1.07,0.872,1.941,1.947,1.941
				c1.069,0,1.941-0.871,1.941-1.941c0-0.027-0.004-0.057-0.004-0.083h0.004V17.34h1.217L5.098,50.316
				c0,1.451,1.171,2.629,2.617,2.629s2.626-1.178,2.626-2.629l-0.003-21.271h1.176v21.296l0.014,0.016
				c0.014,1.436,1.184,2.582,2.61,2.582c1.445,0,2.61-1.17,2.61-2.604L16.74,17.286l1.259,0.01L26.016,24.571z"/>
			<path style="fill:#010002;" d="M37.818,2.227c-0.521-0.297-1.189-0.125-1.488,0.401l-10.9,18.886
				C25.129,22.032,25.3,22.7,25.827,23c0.526,0.304,1.187,0.122,1.487-0.401L38.217,3.722C38.52,3.194,38.342,2.526,37.818,2.227z"
				/>
			<path style="fill:#010002;" d="M51.758,16.869c0.604-1.031,1.245-2.151,2.016-3.488c-1.584,0.048-2.729-0.396-3.692-0.981
				c-0.979-0.585-1.761-1.315-2.504-2.077c-0.745-0.763-1.445-1.55-2.185-2.31c-0.744-0.766-1.533-1.502-2.506-2.082
				c-0.97-0.579-2.109-1.028-3.697-0.977c-0.772,1.335-1.422,2.455-2.021,3.494c-0.601,1.036-1.155,2.004-1.756,3.046
				c-0.604,1.045-1.244,2.153-2.021,3.493c1.588-0.05,2.729,0.398,3.693,0.984c0.977,0.579,1.764,1.313,2.514,2.07
				c0.739,0.763,1.435,1.552,2.176,2.318c0.748,0.756,1.541,1.493,2.508,2.072c0.975,0.587,2.115,1.03,3.695,0.984
				c0.775-1.343,1.426-2.461,2.022-3.498C50.598,18.878,51.152,17.914,51.758,16.869z"/>
		</g>
	</g>
</g>
<g>
</g>
<g>
</g>
<g>
</g>
<g>
</g>
<g>
</g>
<g>
</g>
<g>
</g>
<g>
</g>
<g>
</g>
<g>
</g>
<g>
</g>
<g>
</g>
<g>
</g>
<g>
</g>
<g>
</g>
</svg>
