<?xml version="1.0" encoding="iso-8859-1"?>
<!-- Generator: Adobe Illustrator 18.1.1, SVG Export Plug-In . SVG Version: 6.00 Build 0)  -->
<svg version="1.1" id="Capa_1" xmlns="http://www.w3.org/2000/svg" xmlns:xlink="http://www.w3.org/1999/xlink" x="0px" y="0px"
	 viewBox="0 0 45.258 45.258" style="enable-background:new 0 0 45.258 45.258;" xml:space="preserve">
<g>
	<g>
		<g>
			<path style="fill:#010002;" d="M19.967,23.706h-1.31c0.179,0.165,0.253,0.238,0.608,0.247
				C19.523,23.969,19.75,23.854,19.967,23.706z"/>
			<polygon style="fill:#010002;" points="31.545,23.912 31.898,23.706 30.932,23.706 			"/>
			<path style="fill:#010002;" d="M12.089,24.865c0.751-0.24,1.41-0.61,2.046-0.971c0.114-0.063,0.227-0.127,0.341-0.188H9.63
				C9.914,24.171,10.764,25.291,12.089,24.865z"/>
			<path style="fill:#010002;" d="M8.748,23.895l0.387-0.188H7.559v2.108h3.857C10.05,25.765,9.101,24.62,8.748,23.895z"/>
			<path style="fill:#010002;" d="M11.506,25.825c0.039,0,0.078-0.008,0.116-0.01h-0.206C11.449,25.814,11.475,25.825,11.506,25.825
				z"/>
			<path style="fill:#010002;" d="M9.521,23.518l-0.387,0.189H9.63C9.565,23.604,9.53,23.531,9.521,23.518z"/>
			<path style="fill:#010002;" d="M22.629,0.001C10.151,0.001,0,10.152,0,22.63c0,12.479,10.151,22.628,22.629,22.628
				c12.479,0,22.629-10.149,22.629-22.628C45.258,10.152,35.107,0.001,22.629,0.001z M2.962,22.63
				c0-10.844,8.822-19.666,19.667-19.666c4.421,0,8.504,1.466,11.792,3.937l-4.526,5.49c-1.567-0.832-3.342-1.362-5.33-1.498
				c-0.346-0.023-2.343-0.036-2.694-0.036c-6.098,0-10.77,4.034-13.128,9.254l14.822-0.038l-0.716,0.867H8.424v2.109h12.688
				l-1.419,1.72c-0.141,0.032-0.291,0.053-0.451,0.047c-0.685-0.021-0.946-0.269-1.176-0.484c-0.19-0.18-0.391-0.368-1.045-0.496
				c-0.758-0.147-1.548,0.297-2.46,0.813c-0.642,0.36-1.371,0.771-2.207,1.041c-0.255,0.082-0.497,0.119-0.73,0.129h7.208
				l-0.771,0.936H8.855c0,0-0.544,2.83,0.862,2.83c0.419,0,2.822,0,6.008,0l-6.284,7.622C5.464,33.605,2.962,28.403,2.962,22.63z
				 M22.629,42.296c-4.007,0-7.736-1.208-10.847-3.272l7.781-9.441c7.125,0,15.589,0,16.266,0c1.146,0,0.86-2.83,0.86-2.83H21.897
				l0.771-0.936H37.91v-2.109h-3.064l1.256,0.674l-0.406,0.76l-2.37-1.272l-1.683,0.989l-2.127-0.719h-2.873
				c-0.524,0-0.679,0.092-0.988,0.281c-0.346,0.211-0.82,0.501-1.926,0.76c-0.26,0.063-0.473,0.108-0.656,0.146l0.908-1.102
				c0.617-0.184,0.936-0.363,1.188-0.518h-0.762l0.542-0.658h12.099v-2.109h-10.36l0.724-0.879l9.104-0.023
				c-0.996-2.353-2.396-4.393-4.177-5.953l4.31-5.23c3.488,3.552,5.646,8.416,5.646,13.776
				C42.295,33.473,33.473,42.296,22.629,42.296z"/>
		</g>
	</g>
</g>
<g>
</g>
<g>
</g>
<g>
</g>
<g>
</g>
<g>
</g>
<g>
</g>
<g>
</g>
<g>
</g>
<g>
</g>
<g>
</g>
<g>
</g>
<g>
</g>
<g>
</g>
<g>
</g>
<g>
</g>
</svg>
