<?xml version="1.0" encoding="iso-8859-1"?>
<!-- Generator: Adobe Illustrator 18.1.1, SVG Export Plug-In . SVG Version: 6.00 Build 0)  -->
<svg version="1.1" id="Capa_1" xmlns="http://www.w3.org/2000/svg" xmlns:xlink="http://www.w3.org/1999/xlink" x="0px" y="0px"
	 viewBox="0 0 51.092 51.092" style="enable-background:new 0 0 51.092 51.092;" xml:space="preserve">
<g>
	<g>
		<path style="fill:#010002;" d="M50.987,28.999c-0.357-1.203-1.6-2.021-3.766-2.437c-0.181-0.016-18.213-1.721-26.338-10.332
			c-0.191-0.146-1.187-0.872-2.084-0.872c-0.54,0-0.871,0.246-1.055,0.452c-0.203,0.227-0.33,0.52-0.383,0.883
			c-3.311-0.278-7.902-0.406-11.198-0.406c-0.996,0-1.832,0.014-2.422,0.036l-0.122-0.02c-0.386-0.061-0.786-0.053-1.229,0.049
			c-1.049,0.274-2.315,1.219-2.39,4.18v12.47l0.001,2.391c0,0.189,0.51,0.341,1.126,0.341h2.101v-1.26h1.007v1.26h2.742h1.164v-1.26
			h1.007v1.26h2.931h0.974v-1.26h1.007v1.26h17.249v-1.26h1.008v1.26h0.978h2.56v-1.26h1.008v1.26h2.231h0.63v-1.26h1.008v1.26
			h1.558h1.642h0.741v-1.26h1.009v1.26h1.442h1.34c0.61,0,1.123-0.149,1.123-0.341v-2.605C49.79,32.581,51.53,30.81,50.987,28.999z
			 M16.122,18.571c-2.599,0.382-5.71,0.235-8.777-0.292C10.54,18.327,13.479,18.427,16.122,18.571z M48.724,31.489H1.514V20.551
			c0.028-1.104,0.271-2.477,1.239-2.73c0.172-0.039,0.343-0.055,0.507-0.038l0.06,0.036l2.926,1.372
			c5.119,2.121,8.959,2.36,11.398,0.295l1.322-1.119l0.01,0.002l-0.001-0.01l-0.009-0.076l-0.098-0.848
			c-0.039-0.333-0.015-0.509-0.024-0.562c0.291,0.029,0.825,0.332,1.033,0.478c1.947,2.067,4.41,3.743,7.05,5.106l-0.729-0.248
			c0,0-3.444-0.312-2.689,1.577c0.756,1.891,5.039,2.898,5.039,2.898l4.787,0.881c0,0,3.328,0.477,6.892-0.581l-0.07-0.021
			c3.812,0.812,6.595,1.073,6.854,1.099c1.451,0.278,2.351,0.768,2.531,1.369C49.745,30.104,49.126,31.018,48.724,31.489z"/>
	</g>
</g>
<g>
</g>
<g>
</g>
<g>
</g>
<g>
</g>
<g>
</g>
<g>
</g>
<g>
</g>
<g>
</g>
<g>
</g>
<g>
</g>
<g>
</g>
<g>
</g>
<g>
</g>
<g>
</g>
<g>
</g>
</svg>
