<?xml version="1.0" encoding="iso-8859-1"?>
<!-- Generator: Adobe Illustrator 18.1.1, SVG Export Plug-In . SVG Version: 6.00 Build 0)  -->
<svg version="1.1" id="Capa_1" xmlns="http://www.w3.org/2000/svg" xmlns:xlink="http://www.w3.org/1999/xlink" x="0px" y="0px"
	 viewBox="0 0 40.891 40.891" style="enable-background:new 0 0 40.891 40.891;" xml:space="preserve">
<g>
	<g>
		<g>
			<path style="fill:#010002;" d="M38.443,26.822c0.345-5.375-0.385-9.096-2.176-11.049c-1.142-1.246-2.301-1.318-2.531-1.321H8.227
				L3.741,6.776H1.783l1.188-0.013c0-0.008,0.044-0.673,0.705-1.341C4.403,4.684,6.001,3.805,9.48,3.805V1.429
				c-3.453,0-5.975,0.782-7.497,2.322C0.635,5.117,0.594,6.573,0.594,6.776H0L5.943,26.09h1.365c-2.786,0-5.052,2.266-5.052,5.052
				c0,2.784,2.266,5.049,5.052,5.049H35.84c2.784,0,5.051-2.265,5.051-5.049C40.891,29.308,39.906,27.706,38.443,26.822z
				 M33.639,16.828l0.025-0.004c0.008,0.003,0.014,0.004,0.021,0.004h0.049h-0.043c0.846,0.137,2.771,2.062,2.412,9.273
				c-0.088-0.004-0.176-0.012-0.265-0.012H15.03l-5.415-9.262L33.639,16.828L33.639,16.828z M10.766,35.005H7.308
				c-2.131,0-3.863-1.734-3.863-3.862c0-2.13,1.731-3.863,3.863-3.863h3.458V35.005z M20.601,35.005h-7.89v-7.726h7.89V35.005z
				 M30.499,35.005h-7.954v-7.726h7.954V35.005z M35.84,35.005h-3.396v-7.726h3.396c2.128,0,3.861,1.733,3.861,3.863
				C39.701,33.27,37.968,35.005,35.84,35.005z"/>
			<rect x="5.415" y="36.49" style="fill:#010002;" width="30.834" height="2.971"/>
		</g>
	</g>
</g>
<g>
</g>
<g>
</g>
<g>
</g>
<g>
</g>
<g>
</g>
<g>
</g>
<g>
</g>
<g>
</g>
<g>
</g>
<g>
</g>
<g>
</g>
<g>
</g>
<g>
</g>
<g>
</g>
<g>
</g>
</svg>
